<?xml version="1.0" encoding="utf-8"?>
<!-- Generator: Adobe Illustrator 24.0.0, SVG Export Plug-In . SVG Version: 6.00 Build 0)  -->
<svg version="1.2" baseProfile="tiny" id="g-ridgehisto-_1_-desktop-img" xmlns="http://www.w3.org/2000/svg" xmlns:xlink="http://www.w3.org/1999/xlink"
	 x="0px" y="0px" viewBox="0 0 1200 760.462" xml:space="preserve">
<g>
	<rect x="-0.05" y="0.329" fill="#201C38" width="1200.093" height="761.53"/>
	
		<rect x="813.623" y="211.172" fill="#B24581" stroke="#FFFFFF" stroke-width="0.25" stroke-miterlimit="10" width="24.262" height="0.832"/>
	
		<rect x="408.761" y="210.756" fill="#FFEFA1" stroke="#FFFFFF" stroke-width="0.25" stroke-miterlimit="10" width="24.263" height="1.247"/>
	
		<rect x="435.79" y="191.194" fill="#FFF0B3" stroke="#FFFFFF" stroke-width="0.25" stroke-miterlimit="10" width="24.263" height="20.81"/>
	
		<rect x="462.748" y="198.684" fill="#FDFFDE" stroke="#FFFFFF" stroke-width="0.25" stroke-miterlimit="10" width="24.263" height="13.32"/>
	
		<rect x="489.775" y="146.652" fill="#DEF9FF" stroke="#FFFFFF" stroke-width="0.25" stroke-miterlimit="10" width="24.263" height="65.351"/>
	
		<rect x="516.734" y="121.055" fill="#DEF9FF" stroke="#FFFFFF" stroke-width="0.25" stroke-miterlimit="10" width="24.263" height="90.949"/>
	
		<rect x="543.692" y="197.643" fill="#FDFFFF" stroke="#FFFFFF" stroke-width="0.25" stroke-miterlimit="10" width="24.263" height="14.361"/>
	
		<rect x="570.719" y="145.617" fill="#FDFFFF" stroke="#FFFFFF" stroke-width="0.25" stroke-miterlimit="10" width="24.263" height="66.387"/>
	
		<rect x="597.678" y="158.31" fill="#DEF9FF" stroke="#FFFFFF" stroke-width="0.25" stroke-miterlimit="10" width="24.263" height="53.694"/>
	
		<rect x="624.705" y="153.523" fill="#DEF9FF" stroke="#FFFFFF" stroke-width="0.25" stroke-miterlimit="10" width="24.265" height="58.481"/>
	
		<rect x="651.663" y="169.962" fill="#FFF7D7" stroke="#FFFFFF" stroke-width="0.25" stroke-miterlimit="10" width="24.263" height="42.042"/>
	
		<rect x="678.692" y="153.523" fill="#FFF0B3" stroke="#FFFFFF" stroke-width="0.25" stroke-miterlimit="10" width="24.263" height="58.481"/>
	
		<rect x="705.65" y="193.897" fill="#FFF48F" stroke="#FFFFFF" stroke-width="0.25" stroke-miterlimit="10" width="24.265" height="18.107"/>
	
		<rect x="732.678" y="189.526" fill="#F9CB83" stroke="#FFFFFF" stroke-width="0.25" stroke-miterlimit="10" width="24.263" height="22.478"/>
	
		<rect x="759.637" y="199.515" fill="#EB857E" stroke="#FFFFFF" stroke-width="0.25" stroke-miterlimit="10" width="24.263" height="12.489"/>
	
		<rect x="786.595" y="207.427" fill="#DB6B7E" stroke="#FFFFFF" stroke-width="0.25" stroke-miterlimit="10" width="24.263" height="4.576"/>
	
		<rect x="489.152" y="318.02" fill="#CAF8FF" stroke="#FFFFFF" stroke-width="0.25" stroke-miterlimit="10" width="24.193" height="1.247"/>
	
		<rect x="516.033" y="298.457" fill="#DEF9FF" stroke="#FFFFFF" stroke-width="0.25" stroke-miterlimit="10" width="24.193" height="20.81"/>
	
		<rect x="542.914" y="305.948" fill="#FDFFFF" stroke="#FFFFFF" stroke-width="0.25" stroke-miterlimit="10" width="24.193" height="13.32"/>
	
		<rect x="569.864" y="253.916" fill="#FDFFFF" stroke="#FFFFFF" stroke-width="0.25" stroke-miterlimit="10" width="24.193" height="65.351"/>
	
		<rect x="596.745" y="228.319" fill="#DEF9FF" stroke="#FFFFFF" stroke-width="0.25" stroke-miterlimit="10" width="24.193" height="90.948"/>
	
		<rect x="623.695" y="304.906" fill="#DEF9FF" stroke="#FFFFFF" stroke-width="0.25" stroke-miterlimit="10" width="24.193" height="14.361"/>
	
		<rect x="650.574" y="252.88" fill="#FFF7D7" stroke="#FFFFFF" stroke-width="0.25" stroke-miterlimit="10" width="24.193" height="66.387"/>
	
		<rect x="677.525" y="265.574" fill="#FFF0B3" stroke="#FFFFFF" stroke-width="0.25" stroke-miterlimit="10" width="24.193" height="53.694"/>
	
		<rect x="704.406" y="260.787" fill="#FFF48F" stroke="#FFFFFF" stroke-width="0.25" stroke-miterlimit="10" width="24.193" height="58.481"/>
	
		<rect x="731.357" y="277.226" fill="#F9CB83" stroke="#FFFFFF" stroke-width="0.25" stroke-miterlimit="10" width="24.191" height="42.042"/>
	
		<rect x="758.236" y="260.787" fill="#EB857E" stroke="#FFFFFF" stroke-width="0.25" stroke-miterlimit="10" width="24.193" height="58.481"/>
	
		<rect x="785.118" y="301.161" fill="#DB6B7E" stroke="#FFFFFF" stroke-width="0.25" stroke-miterlimit="10" width="24.193" height="18.107"/>
	
		<rect x="812.067" y="296.789" fill="#B24581" stroke="#FFFFFF" stroke-width="0.25" stroke-miterlimit="10" width="24.193" height="22.478"/>
	
		<rect x="838.948" y="306.778" fill="#692586" stroke="#FFFFFF" stroke-width="0.25" stroke-miterlimit="10" width="24.193" height="12.489"/>
	
		<rect x="865.898" y="314.691" fill="#2E365F" stroke="#FFFFFF" stroke-width="0.25" stroke-miterlimit="10" width="24.193" height="4.576"/>
	
		<rect x="892.777" y="318.436" fill="#2B2472" stroke="#FFFFFF" stroke-width="0.25" stroke-miterlimit="10" width="24.193" height="0.831"/>
	
		<rect x="462.037" y="532.967" fill="#B6E7CF" stroke="#FFFFFF" stroke-width="0.25" stroke-miterlimit="10" width="24.177" height="0.829"/>
	
		<rect x="704.079" y="532.549" fill="#FFF48F" stroke="#FFFFFF" stroke-width="0.25" stroke-miterlimit="10" width="24.177" height="1.247"/>
	
		<rect x="273.663" y="475.315" fill="#2B2472" stroke="#FFFFFF" stroke-width="0.25" stroke-miterlimit="10" width="24.177" height="58.481"/>
	
		<rect x="300.594" y="491.754" fill="#2B345D" stroke="#FFFFFF" stroke-width="0.25" stroke-miterlimit="10" width="24.177" height="42.043"/>
	
		<rect x="327.625" y="475.315" fill="#76538F" stroke="#FFFFFF" stroke-width="0.25" stroke-miterlimit="10" width="24.177" height="58.481"/>
	
		<rect x="354.321" y="515.69" fill="#A17C8B" stroke="#FFFFFF" stroke-width="0.25" stroke-miterlimit="10" width="24.177" height="18.107"/>
	
		<rect x="381.253" y="511.318" fill="#F2CEA6" stroke="#FFFFFF" stroke-width="0.25" stroke-miterlimit="10" width="24.177" height="22.478"/>
	
		<rect x="408.116" y="521.307" fill="#FBF6AD" stroke="#FFFFFF" stroke-width="0.25" stroke-miterlimit="10" width="24.177" height="12.489"/>
	
		<rect x="435.047" y="529.221" fill="#DAF3C0" stroke="#FFFFFF" stroke-width="0.25" stroke-miterlimit="10" width="24.177" height="4.576"/>
	
		<rect x="730.885" y="512.986" fill="#F9CB83" stroke="#FFFFFF" stroke-width="0.25" stroke-miterlimit="10" width="24.179" height="20.81"/>
	
		<rect x="757.747" y="520.476" fill="#EB857E" stroke="#FFFFFF" stroke-width="0.25" stroke-miterlimit="10" width="24.176" height="13.32"/>
	
		<rect x="784.61" y="468.444" fill="#DB6B7E" stroke="#FFFFFF" stroke-width="0.25" stroke-miterlimit="10" width="24.177" height="65.352"/>
	
		<rect x="811.544" y="442.847" fill="#B24581" stroke="#FFFFFF" stroke-width="0.25" stroke-miterlimit="10" width="24.177" height="90.95"/>
	
		<rect x="838.405" y="519.435" fill="#692586" stroke="#FFFFFF" stroke-width="0.25" stroke-miterlimit="10" width="24.179" height="14.361"/>
	
		<rect x="865.337" y="467.408" fill="#2E365F" stroke="#FFFFFF" stroke-width="0.25" stroke-miterlimit="10" width="24.177" height="66.388"/>
	
		<rect x="892.201" y="480.102" fill="#2B2472" stroke="#FFFFFF" stroke-width="0.25" stroke-miterlimit="10" width="24.179" height="53.694"/>
	
		<rect x="572.161" y="640.23" fill="#FDFFFF" stroke="#FFFFFF" stroke-width="0.25" stroke-miterlimit="10" width="24.177" height="0.831"/>
	
		<rect x="811.93" y="639.813" fill="#B24581" stroke="#FFFFFF" stroke-width="0.25" stroke-miterlimit="10" width="24.177" height="1.247"/>
	
		<rect x="273.663" y="550.11" fill="#2B2472" stroke="#FFFFFF" stroke-width="0.25" stroke-miterlimit="10" width="24.177" height="90.95"/>
	
		<rect x="300.594" y="626.699" fill="#2B345D" stroke="#FFFFFF" stroke-width="0.25" stroke-miterlimit="10" width="24.177" height="14.361"/>
	
		<rect x="327.624" y="574.672" fill="#76538F" stroke="#FFFFFF" stroke-width="0.25" stroke-miterlimit="10" width="24.177" height="66.388"/>
	
		<rect x="354.321" y="587.365" fill="#A17C8B" stroke="#FFFFFF" stroke-width="0.25" stroke-miterlimit="10" width="24.177" height="53.695"/>
	
		<rect x="381.253" y="582.58" fill="#FFCD9C" stroke="#FFFFFF" stroke-width="0.25" stroke-miterlimit="10" width="24.177" height="58.481"/>
	
		<rect x="408.116" y="599.019" fill="#FFEFA1" stroke="#FFFFFF" stroke-width="0.25" stroke-miterlimit="10" width="24.177" height="42.042"/>
	
		<rect x="435.047" y="582.58" fill="#FFF0B3" stroke="#FFFFFF" stroke-width="0.25" stroke-miterlimit="10" width="24.177" height="58.481"/>
	
		<rect x="461.911" y="622.952" fill="#FDFFDE" stroke="#FFFFFF" stroke-width="0.25" stroke-miterlimit="10" width="24.177" height="18.108"/>
	
		<rect x="488.843" y="618.582" fill="#DEF9FF" stroke="#FFFFFF" stroke-width="0.25" stroke-miterlimit="10" width="24.177" height="22.478"/>
	
		<rect x="515.705" y="628.571" fill="#DEF9FF" stroke="#FFFFFF" stroke-width="0.25" stroke-miterlimit="10" width="24.177" height="12.489"/>
	
		<rect x="542.57" y="636.483" fill="#FDFFFF" stroke="#FFFFFF" stroke-width="0.25" stroke-miterlimit="10" width="24.177" height="4.577"/>
	
		<rect x="838.408" y="620.25" fill="#692586" stroke="#FFFFFF" stroke-width="0.25" stroke-miterlimit="10" width="24.179" height="20.81"/>
	
		<rect x="865.339" y="628.728" fill="#2E365F" stroke="#FFFFFF" stroke-width="0.25" stroke-miterlimit="10" width="24.177" height="12.332"/>
	
		<rect x="892.202" y="575.708" fill="#2B2472" stroke="#FFFFFF" stroke-width="0.25" stroke-miterlimit="10" width="24.177" height="65.353"/>
	
		<rect x="273.663" y="747.075" fill="#2B2472" stroke="#FFFFFF" stroke-width="0.25" stroke-miterlimit="10" width="24.177" height="1.246"/>
	
		<rect x="300.595" y="727.513" fill="#2B345D" stroke="#FFFFFF" stroke-width="0.25" stroke-miterlimit="10" width="24.177" height="20.808"/>
	
		<rect x="327.457" y="735.002" fill="#76538F" stroke="#FFFFFF" stroke-width="0.25" stroke-miterlimit="10" width="24.177" height="13.319"/>
	
		<rect x="354.488" y="682.971" fill="#A17C8B" stroke="#FFFFFF" stroke-width="0.25" stroke-miterlimit="10" width="24.177" height="65.35"/>
	
		<rect x="381.253" y="657.374" fill="#FFCD9C" stroke="#FFFFFF" stroke-width="0.25" stroke-miterlimit="10" width="24.177" height="90.947"/>
	
		<rect x="408.116" y="733.96" fill="#FFEFA1" stroke="#FFFFFF" stroke-width="0.25" stroke-miterlimit="10" width="24.177" height="14.361"/>
	
		<rect x="435.047" y="681.936" fill="#FFF0B3" stroke="#FFFFFF" stroke-width="0.25" stroke-miterlimit="10" width="24.177" height="66.385"/>
	
		<rect x="461.91" y="694.629" fill="#FDFFDE" stroke="#FFFFFF" stroke-width="0.25" stroke-miterlimit="10" width="24.177" height="53.692"/>
	
		<rect x="488.842" y="689.842" fill="#DEF9FF" stroke="#FFFFFF" stroke-width="0.25" stroke-miterlimit="10" width="24.177" height="58.479"/>
	
		<rect x="515.705" y="706.281" fill="#DEF9FF" stroke="#FFFFFF" stroke-width="0.25" stroke-miterlimit="10" width="24.177" height="42.04"/>
	
		<rect x="542.569" y="689.842" fill="#FDFFFF" stroke="#FFFFFF" stroke-width="0.25" stroke-miterlimit="10" width="24.176" height="58.479"/>
	
		<rect x="569.501" y="730.215" fill="#FDFFFF" stroke="#FFFFFF" stroke-width="0.25" stroke-miterlimit="10" width="24.177" height="18.106"/>
	
		<rect x="596.363" y="725.845" fill="#DEF9FF" stroke="#FFFFFF" stroke-width="0.25" stroke-miterlimit="10" width="24.178" height="22.476"/>
	
		<rect x="623.295" y="735.833" fill="#DEF9FF" stroke="#FFFFFF" stroke-width="0.25" stroke-miterlimit="10" width="24.178" height="12.488"/>
	
		<rect x="650.159" y="743.745" fill="#FFF7D7" stroke="#FFFFFF" stroke-width="0.25" stroke-miterlimit="10" width="24.177" height="4.576"/>
	
		<rect x="677.091" y="747.49" fill="#FFF0B3" stroke="#FFFFFF" stroke-width="0.25" stroke-miterlimit="10" width="24.177" height="0.831"/>
	
		<line fill="none" stroke="#FFFFFF" stroke-width="3" stroke-miterlimit="10" x1="271.042" y1="105.007" x2="916.042" y2="105.007"/>
	
		<rect x="272.689" y="408.428" fill="#2B2472" stroke="#FFFFFF" stroke-width="0.25" stroke-miterlimit="10" width="24.177" height="18.107"/>
	
		<rect x="299.62" y="404.056" fill="#2B345D" stroke="#FFFFFF" stroke-width="0.25" stroke-miterlimit="10" width="24.177" height="22.479"/>
	
		<rect x="326.483" y="414.046" fill="#76538F" stroke="#FFFFFF" stroke-width="0.25" stroke-miterlimit="10" width="24.177" height="12.489"/>
	
		<rect x="353.346" y="421.959" fill="#A17C8B" stroke="#FFFFFF" stroke-width="0.25" stroke-miterlimit="10" width="24.177" height="4.576"/>
	
		<rect x="380.278" y="425.704" fill="#F2CEA6" stroke="#FFFFFF" stroke-width="0.25" stroke-miterlimit="10" width="24.177" height="0.831"/>
	
		<rect x="622.32" y="425.288" fill="#DEF9FF" stroke="#FFFFFF" stroke-width="0.25" stroke-miterlimit="10" width="24.176" height="1.247"/>
	
		<rect x="649.182" y="405.724" fill="#FFF7D7" stroke="#FFFFFF" stroke-width="0.25" stroke-miterlimit="10" width="24.178" height="20.811"/>
	
		<rect x="676.114" y="413.215" fill="#FFF0B3" stroke="#FFFFFF" stroke-width="0.25" stroke-miterlimit="10" width="24.177" height="13.32"/>
	
		<rect x="702.977" y="361.182" fill="#FFF48F" stroke="#FFFFFF" stroke-width="0.25" stroke-miterlimit="10" width="24.177" height="65.353"/>
	
		<rect x="729.909" y="335.583" fill="#F9CB83" stroke="#FFFFFF" stroke-width="0.25" stroke-miterlimit="10" width="24.178" height="90.952"/>
	
		<rect x="756.771" y="412.174" fill="#EB857E" stroke="#FFFFFF" stroke-width="0.25" stroke-miterlimit="10" width="24.176" height="14.361"/>
	
		<rect x="783.636" y="360.145" fill="#DB6B7E" stroke="#FFFFFF" stroke-width="0.25" stroke-miterlimit="10" width="24.176" height="66.39"/>
	
		<rect x="810.567" y="372.839" fill="#B24581" stroke="#FFFFFF" stroke-width="0.25" stroke-miterlimit="10" width="24.177" height="53.696"/>
	
		<rect x="837.429" y="368.053" fill="#692586" stroke="#FFFFFF" stroke-width="0.25" stroke-miterlimit="10" width="24.179" height="58.482"/>
	
		<rect x="864.361" y="384.492" fill="#2E365F" stroke="#FFFFFF" stroke-width="0.25" stroke-miterlimit="10" width="24.177" height="42.043"/>
	
		<rect x="891.225" y="368.053" fill="#2B2472" stroke="#FFFFFF" stroke-width="0.25" stroke-miterlimit="10" width="24.176" height="58.482"/>
	<line fill="none" stroke="#FFFFFF" stroke-miterlimit="10" x1="272.689" y1="428.476" x2="917.042" y2="428.476"/>
	<line fill="none" stroke="#FFFFFF" stroke-miterlimit="10" x1="272.522" y1="643.476" x2="916.875" y2="643.476"/>
	<line fill="none" stroke="#FFFFFF" stroke-miterlimit="10" x1="273.522" y1="750.143" x2="917.875" y2="750.143"/>
	<line fill="none" stroke="#FFFFFF" stroke-miterlimit="10" x1="273.189" y1="536.143" x2="917.542" y2="536.143"/>
	<line fill="none" stroke="#FFFFFF" stroke-miterlimit="10" x1="273.189" y1="321.143" x2="917.542" y2="321.143"/>
	<line fill="none" stroke="#FFFFFF" stroke-miterlimit="10" x1="271.856" y1="215.143" x2="916.209" y2="215.143"/>
	<g style="opacity:0.4;">
		
			<line fill="none" stroke="#FFFFFF" stroke-width="0.5" stroke-miterlimit="10" x1="380.042" y1="105.007" x2="380.044" y2="107.007"/>
		
			<line fill="none" stroke="#FFFFFF" stroke-width="0.5" stroke-miterlimit="10" stroke-dasharray="3.9822,3.9822" x1="380.047" y1="110.99" x2="380.519" y2="746.152"/>
		
			<line fill="none" stroke="#FFFFFF" stroke-width="0.5" stroke-miterlimit="10" x1="380.521" y1="748.143" x2="380.522" y2="750.143"/>
	</g>
	
		<line style="opacity:0.4;" fill="none" stroke="#FFFFFF" stroke-miterlimit="10" x1="271.042" y1="105.007" x2="271.522" y2="750.143"/>
	<g style="opacity:0.4;">
		
			<line fill="none" stroke="#FFFFFF" stroke-width="0.5" stroke-miterlimit="10" x1="595.042" y1="103.007" x2="595.044" y2="105.007"/>
		
			<line fill="none" stroke="#FFFFFF" stroke-width="0.5" stroke-miterlimit="10" stroke-dasharray="3.9822,3.9822" x1="595.047" y1="108.99" x2="595.519" y2="744.152"/>
		
			<line fill="none" stroke="#FFFFFF" stroke-width="0.5" stroke-miterlimit="10" x1="595.521" y1="746.143" x2="595.522" y2="748.143"/>
	</g>
	<g style="opacity:0.4;">
		
			<line fill="none" stroke="#FFFFFF" stroke-width="0.5" stroke-miterlimit="10" x1="703.042" y1="103.007" x2="703.044" y2="105.007"/>
		
			<line fill="none" stroke="#FFFFFF" stroke-width="0.5" stroke-miterlimit="10" stroke-dasharray="3.9822,3.9822" x1="703.047" y1="108.99" x2="703.519" y2="744.152"/>
		
			<line fill="none" stroke="#FFFFFF" stroke-width="0.5" stroke-miterlimit="10" x1="703.521" y1="746.143" x2="703.522" y2="748.143"/>
	</g>
	<g style="opacity:0.4;">
		
			<line fill="none" stroke="#FFFFFF" stroke-width="0.5" stroke-miterlimit="10" x1="809.042" y1="105.007" x2="809.044" y2="107.007"/>
		
			<line fill="none" stroke="#FFFFFF" stroke-width="0.5" stroke-miterlimit="10" stroke-dasharray="3.9822,3.9822" x1="809.047" y1="110.99" x2="809.519" y2="746.152"/>
		
			<line fill="none" stroke="#FFFFFF" stroke-width="0.5" stroke-miterlimit="10" x1="809.521" y1="748.143" x2="809.522" y2="750.143"/>
	</g>
	<g style="opacity:0.4;">
		
			<line fill="none" stroke="#FFFFFF" stroke-width="0.5" stroke-miterlimit="10" x1="917.042" y1="105.007" x2="917.044" y2="107.007"/>
		
			<line fill="none" stroke="#FFFFFF" stroke-width="0.5" stroke-miterlimit="10" stroke-dasharray="3.9822,3.9822" x1="917.047" y1="110.99" x2="917.519" y2="746.152"/>
		
			<line fill="none" stroke="#FFFFFF" stroke-width="0.5" stroke-miterlimit="10" x1="917.521" y1="748.143" x2="917.522" y2="750.143"/>
	</g>
	<g style="opacity:0.4;">
		
			<line fill="none" stroke="#FFFFFF" stroke-width="0.5" stroke-miterlimit="10" x1="488.912" y1="105.007" x2="488.914" y2="107.007"/>
		
			<line fill="none" stroke="#FFFFFF" stroke-width="0.5" stroke-miterlimit="10" stroke-dasharray="3.9822,3.9822" x1="488.917" y1="110.99" x2="489.389" y2="746.152"/>
		
			<line fill="none" stroke="#FFFFFF" stroke-width="0.5" stroke-miterlimit="10" x1="489.391" y1="748.143" x2="489.392" y2="750.143"/>
	</g>
	<path fill="#FFFCFC" d="M634.408,238.319"/>
	<path fill="#FFFCFC" d="M926.362,238.319"/>
	<g>
		<line fill="#FFFCFC" x1="517.438" y1="235.83" x2="584.344" y2="235.83"/>
		<g>
			
				<line fill="none" stroke="#FFFFFF" stroke-width="1.5" stroke-miterlimit="10" x1="517.438" y1="235.83" x2="571.055" y2="235.83"/>
			<g>
				<polygon fill="#FFFFFF" points="568.082,240.188 584.344,235.83 568.082,231.472 				"/>
			</g>
		</g>
	</g>
	<g>
		<line fill="#FFFCFC" x1="400.048" y1="557.155" x2="312.634" y2="557.155"/>
		<g>
			
				<line fill="none" stroke="#FFFFFF" stroke-width="1.5" stroke-miterlimit="10" x1="400.048" y1="557.155" x2="325.923" y2="557.155"/>
			<g>
				<polygon fill="#FFFFFF" points="328.895,552.797 312.634,557.155 328.895,561.513 				"/>
			</g>
		</g>
	</g>
</g>
<style>
#g-ridgehisto-_1_-desktop-img rect, #g-ridgehisto-_1_-desktop-img circle, #g-ridgehisto-_1_-desktop-img path, #g-ridgehisto-_1_-desktop-img line, #g-ridgehisto-_1_-desktop-img polyline { vector-effect: non-scaling-stroke; }
</style>
</svg>

