<?xml version="1.0" encoding="utf-8"?>
<!-- Generator: Adobe Illustrator 24.0.0, SVG Export Plug-In . SVG Version: 6.00 Build 0)  -->
<svg version="1.2" baseProfile="tiny" id="g-ridgehisto-_1_-mobile-img" xmlns="http://www.w3.org/2000/svg" xmlns:xlink="http://www.w3.org/1999/xlink"
	 x="0px" y="0px" viewBox="0 0 300 600" xml:space="preserve">
<g>
	<rect x="0.003" y="-0.083" fill="#201C38" width="300" height="600"/>
	
		<rect x="248.518" y="216.651" fill="#B24581" stroke="#FFFFFF" stroke-width="0.25" stroke-miterlimit="10" width="10.807" height="0.409"/>
	
		<rect x="68.181" y="216.447" fill="#FFEFA1" stroke="#FFFFFF" stroke-width="0.25" stroke-miterlimit="10" width="10.808" height="0.613"/>
	
		<rect x="80.22" y="206.826" fill="#FFF0B3" stroke="#FFFFFF" stroke-width="0.25" stroke-miterlimit="10" width="10.808" height="10.235"/>
	
		<rect x="92.228" y="210.509" fill="#FDFFDE" stroke="#FFFFFF" stroke-width="0.25" stroke-miterlimit="10" width="10.808" height="6.551"/>
	
		<rect x="104.267" y="184.92" fill="#DEF9FF" stroke="#FFFFFF" stroke-width="0.25" stroke-miterlimit="10" width="10.808" height="32.14"/>
	
		<rect x="116.275" y="172.331" fill="#DEF9FF" stroke="#FFFFFF" stroke-width="0.25" stroke-miterlimit="10" width="10.808" height="44.729"/>
	
		<rect x="128.283" y="209.997" fill="#FDFFFF" stroke="#FFFFFF" stroke-width="0.25" stroke-miterlimit="10" width="10.808" height="7.063"/>
	
		<rect x="140.322" y="184.411" fill="#FDFFFF" stroke="#FFFFFF" stroke-width="0.25" stroke-miterlimit="10" width="10.808" height="32.649"/>
	
		<rect x="152.33" y="190.653" fill="#DEF9FF" stroke="#FFFFFF" stroke-width="0.25" stroke-miterlimit="10" width="10.808" height="26.407"/>
	
		<rect x="164.369" y="188.299" fill="#DEF9FF" stroke="#FFFFFF" stroke-width="0.25" stroke-miterlimit="10" width="10.808" height="28.761"/>
	
		<rect x="176.377" y="196.384" fill="#FFF7D7" stroke="#FFFFFF" stroke-width="0.25" stroke-miterlimit="10" width="10.808" height="20.676"/>
	
		<rect x="188.416" y="188.299" fill="#FFF0B3" stroke="#FFFFFF" stroke-width="0.25" stroke-miterlimit="10" width="10.808" height="28.761"/>
	
		<rect x="200.424" y="208.155" fill="#FFF48F" stroke="#FFFFFF" stroke-width="0.25" stroke-miterlimit="10" width="10.808" height="8.905"/>
	
		<rect x="212.463" y="206.005" fill="#F9CB83" stroke="#FFFFFF" stroke-width="0.25" stroke-miterlimit="10" width="10.808" height="11.055"/>
	
		<rect x="224.471" y="210.918" fill="#EB857E" stroke="#FFFFFF" stroke-width="0.25" stroke-miterlimit="10" width="10.808" height="6.142"/>
	
		<rect x="236.479" y="214.809" fill="#DB6B7E" stroke="#FFFFFF" stroke-width="0.25" stroke-miterlimit="10" width="10.808" height="2.251"/>
	
		<rect x="103.99" y="269.199" fill="#CAF8FF" stroke="#FFFFFF" stroke-width="0.25" stroke-miterlimit="10" width="10.776" height="0.613"/>
	
		<rect x="115.963" y="259.578" fill="#DEF9FF" stroke="#FFFFFF" stroke-width="0.25" stroke-miterlimit="10" width="10.776" height="10.235"/>
	
		<rect x="127.937" y="263.262" fill="#FDFFFF" stroke="#FFFFFF" stroke-width="0.25" stroke-miterlimit="10" width="10.776" height="6.551"/>
	
		<rect x="139.941" y="237.673" fill="#FDFFFF" stroke="#FFFFFF" stroke-width="0.25" stroke-miterlimit="10" width="10.776" height="32.14"/>
	
		<rect x="151.914" y="225.084" fill="#DEF9FF" stroke="#FFFFFF" stroke-width="0.25" stroke-miterlimit="10" width="10.776" height="44.729"/>
	
		<rect x="163.919" y="262.75" fill="#DEF9FF" stroke="#FFFFFF" stroke-width="0.25" stroke-miterlimit="10" width="10.776" height="7.063"/>
	
		<rect x="175.892" y="237.163" fill="#FFF7D7" stroke="#FFFFFF" stroke-width="0.25" stroke-miterlimit="10" width="10.776" height="32.649"/>
	
		<rect x="187.896" y="243.406" fill="#FFF0B3" stroke="#FFFFFF" stroke-width="0.25" stroke-miterlimit="10" width="10.776" height="26.407"/>
	
		<rect x="199.87" y="241.052" fill="#FFF48F" stroke="#FFFFFF" stroke-width="0.25" stroke-miterlimit="10" width="10.776" height="28.761"/>
	
		<rect x="211.874" y="249.137" fill="#F9CB83" stroke="#FFFFFF" stroke-width="0.25" stroke-miterlimit="10" width="10.775" height="20.676"/>
	
		<rect x="223.847" y="241.052" fill="#EB857E" stroke="#FFFFFF" stroke-width="0.25" stroke-miterlimit="10" width="10.776" height="28.761"/>
	
		<rect x="235.821" y="260.908" fill="#DB6B7E" stroke="#FFFFFF" stroke-width="0.25" stroke-miterlimit="10" width="10.776" height="8.905"/>
	
		<rect x="247.825" y="258.758" fill="#B24581" stroke="#FFFFFF" stroke-width="0.25" stroke-miterlimit="10" width="10.776" height="11.055"/>
	
		<rect x="259.799" y="263.67" fill="#692586" stroke="#FFFFFF" stroke-width="0.25" stroke-miterlimit="10" width="10.776" height="6.142"/>
	
		<rect x="271.803" y="267.562" fill="#2E365F" stroke="#FFFFFF" stroke-width="0.25" stroke-miterlimit="10" width="10.776" height="2.251"/>
	
		<rect x="283.776" y="269.404" fill="#2B2472" stroke="#FFFFFF" stroke-width="0.25" stroke-miterlimit="10" width="10.776" height="0.409"/>
	
		<rect x="91.912" y="374.911" fill="#B6E7CF" stroke="#FFFFFF" stroke-width="0.25" stroke-miterlimit="10" width="10.769" height="0.408"/>
	
		<rect x="199.724" y="374.705" fill="#FFF48F" stroke="#FFFFFF" stroke-width="0.25" stroke-miterlimit="10" width="10.769" height="0.613"/>
	
		<rect x="8.004" y="346.557" fill="#2B2472" stroke="#FFFFFF" stroke-width="0.25" stroke-miterlimit="10" width="10.769" height="28.761"/>
	
		<rect x="20" y="354.642" fill="#2B345D" stroke="#FFFFFF" stroke-width="0.25" stroke-miterlimit="10" width="10.769" height="20.677"/>
	
		<rect x="32.041" y="346.557" fill="#76538F" stroke="#FFFFFF" stroke-width="0.25" stroke-miterlimit="10" width="10.769" height="28.761"/>
	
		<rect x="43.932" y="366.414" fill="#A17C8B" stroke="#FFFFFF" stroke-width="0.25" stroke-miterlimit="10" width="10.769" height="8.905"/>
	
		<rect x="55.928" y="364.264" fill="#F2CEA6" stroke="#FFFFFF" stroke-width="0.25" stroke-miterlimit="10" width="10.769" height="11.055"/>
	
		<rect x="67.894" y="369.176" fill="#FBF6AD" stroke="#FFFFFF" stroke-width="0.25" stroke-miterlimit="10" width="10.769" height="6.142"/>
	
		<rect x="79.89" y="373.068" fill="#DAF3C0" stroke="#FFFFFF" stroke-width="0.25" stroke-miterlimit="10" width="10.769" height="2.25"/>
	
		<rect x="211.664" y="365.084" fill="#F9CB83" stroke="#FFFFFF" stroke-width="0.25" stroke-miterlimit="10" width="10.77" height="10.235"/>
	
		<rect x="223.63" y="368.768" fill="#EB857E" stroke="#FFFFFF" stroke-width="0.25" stroke-miterlimit="10" width="10.769" height="6.551"/>
	
		<rect x="235.595" y="343.178" fill="#DB6B7E" stroke="#FFFFFF" stroke-width="0.25" stroke-miterlimit="10" width="10.769" height="32.14"/>
	
		<rect x="247.592" y="330.589" fill="#B24581" stroke="#FFFFFF" stroke-width="0.25" stroke-miterlimit="10" width="10.769" height="44.729"/>
	
		<rect x="259.557" y="368.256" fill="#692586" stroke="#FFFFFF" stroke-width="0.25" stroke-miterlimit="10" width="10.77" height="7.063"/>
	
		<rect x="271.553" y="342.669" fill="#2E365F" stroke="#FFFFFF" stroke-width="0.25" stroke-miterlimit="10" width="10.769" height="32.65"/>
	
		<rect x="283.519" y="348.911" fill="#2B2472" stroke="#FFFFFF" stroke-width="0.25" stroke-miterlimit="10" width="10.77" height="26.407"/>
	
		<rect x="140.964" y="427.663" fill="#FDFFFF" stroke="#FFFFFF" stroke-width="0.25" stroke-miterlimit="10" width="10.769" height="0.408"/>
	
		<rect x="247.764" y="427.458" fill="#B24581" stroke="#FFFFFF" stroke-width="0.25" stroke-miterlimit="10" width="10.769" height="0.613"/>
	
		<rect x="8.004" y="383.342" fill="#2B2472" stroke="#FFFFFF" stroke-width="0.25" stroke-miterlimit="10" width="10.769" height="44.729"/>
	
		<rect x="20" y="421.008" fill="#2B345D" stroke="#FFFFFF" stroke-width="0.25" stroke-miterlimit="10" width="10.769" height="7.063"/>
	
		<rect x="32.04" y="395.421" fill="#76538F" stroke="#FFFFFF" stroke-width="0.25" stroke-miterlimit="10" width="10.769" height="32.65"/>
	
		<rect x="43.932" y="401.664" fill="#A17C8B" stroke="#FFFFFF" stroke-width="0.25" stroke-miterlimit="10" width="10.769" height="26.407"/>
	
		<rect x="55.928" y="399.31" fill="#FFCD9C" stroke="#FFFFFF" stroke-width="0.25" stroke-miterlimit="10" width="10.769" height="28.761"/>
	
		<rect x="67.894" y="407.395" fill="#FFEFA1" stroke="#FFFFFF" stroke-width="0.25" stroke-miterlimit="10" width="10.769" height="20.676"/>
	
		<rect x="79.89" y="399.31" fill="#FFF0B3" stroke="#FFFFFF" stroke-width="0.25" stroke-miterlimit="10" width="10.769" height="28.761"/>
	
		<rect x="91.855" y="419.166" fill="#FDFFDE" stroke="#FFFFFF" stroke-width="0.25" stroke-miterlimit="10" width="10.769" height="8.906"/>
	
		<rect x="103.852" y="417.016" fill="#DEF9FF" stroke="#FFFFFF" stroke-width="0.25" stroke-miterlimit="10" width="10.769" height="11.055"/>
	
		<rect x="115.817" y="421.929" fill="#DEF9FF" stroke="#FFFFFF" stroke-width="0.25" stroke-miterlimit="10" width="10.769" height="6.142"/>
	
		<rect x="127.783" y="425.82" fill="#FDFFFF" stroke="#FFFFFF" stroke-width="0.25" stroke-miterlimit="10" width="10.769" height="2.251"/>
	
		<rect x="259.558" y="417.837" fill="#692586" stroke="#FFFFFF" stroke-width="0.25" stroke-miterlimit="10" width="10.77" height="10.235"/>
	
		<rect x="271.554" y="422.006" fill="#2E365F" stroke="#FFFFFF" stroke-width="0.25" stroke-miterlimit="10" width="10.769" height="6.065"/>
	
		<rect x="283.52" y="395.931" fill="#2B2472" stroke="#FFFFFF" stroke-width="0.25" stroke-miterlimit="10" width="10.769" height="32.141"/>
	
		<rect x="8.004" y="480.209" fill="#2B2472" stroke="#FFFFFF" stroke-width="0.25" stroke-miterlimit="10" width="10.769" height="0.613"/>
	
		<rect x="20.001" y="470.589" fill="#2B345D" stroke="#FFFFFF" stroke-width="0.25" stroke-miterlimit="10" width="10.769" height="10.233"/>
	
		<rect x="31.966" y="474.272" fill="#76538F" stroke="#FFFFFF" stroke-width="0.25" stroke-miterlimit="10" width="10.769" height="6.551"/>
	
		<rect x="44.006" y="448.683" fill="#A17C8B" stroke="#FFFFFF" stroke-width="0.25" stroke-miterlimit="10" width="10.769" height="32.139"/>
	
		<rect x="55.928" y="436.094" fill="#FFCD9C" stroke="#FFFFFF" stroke-width="0.25" stroke-miterlimit="10" width="10.769" height="44.728"/>
	
		<rect x="67.894" y="473.759" fill="#FFEFA1" stroke="#FFFFFF" stroke-width="0.25" stroke-miterlimit="10" width="10.769" height="7.063"/>
	
		<rect x="79.89" y="448.174" fill="#FFF0B3" stroke="#FFFFFF" stroke-width="0.25" stroke-miterlimit="10" width="10.769" height="32.648"/>
	
		<rect x="91.855" y="454.416" fill="#FDFFDE" stroke="#FFFFFF" stroke-width="0.25" stroke-miterlimit="10" width="10.769" height="26.406"/>
	
		<rect x="103.851" y="452.062" fill="#DEF9FF" stroke="#FFFFFF" stroke-width="0.25" stroke-miterlimit="10" width="10.769" height="28.76"/>
	
		<rect x="115.817" y="460.147" fill="#DEF9FF" stroke="#FFFFFF" stroke-width="0.25" stroke-miterlimit="10" width="10.769" height="20.675"/>
	
		<rect x="127.783" y="452.062" fill="#FDFFFF" stroke="#FFFFFF" stroke-width="0.25" stroke-miterlimit="10" width="10.769" height="28.76"/>
	
		<rect x="139.779" y="471.918" fill="#FDFFFF" stroke="#FFFFFF" stroke-width="0.25" stroke-miterlimit="10" width="10.769" height="8.904"/>
	
		<rect x="151.744" y="469.768" fill="#DEF9FF" stroke="#FFFFFF" stroke-width="0.25" stroke-miterlimit="10" width="10.77" height="11.054"/>
	
		<rect x="163.741" y="474.681" fill="#DEF9FF" stroke="#FFFFFF" stroke-width="0.25" stroke-miterlimit="10" width="10.77" height="6.142"/>
	
		<rect x="175.706" y="478.572" fill="#FFF7D7" stroke="#FFFFFF" stroke-width="0.25" stroke-miterlimit="10" width="10.769" height="2.25"/>
	
		<rect x="187.703" y="480.414" fill="#FFF0B3" stroke="#FFFFFF" stroke-width="0.25" stroke-miterlimit="10" width="10.769" height="0.408"/>
	<line fill="none" stroke="#FFFFFF" stroke-width="3" stroke-miterlimit="10" x1="6.837" y1="164.439" x2="297.621" y2="164.439"/>
	
		<rect x="7.57" y="313.662" fill="#2B2472" stroke="#FFFFFF" stroke-width="0.25" stroke-miterlimit="10" width="10.769" height="8.905"/>
	
		<rect x="19.567" y="311.512" fill="#2B345D" stroke="#FFFFFF" stroke-width="0.25" stroke-miterlimit="10" width="10.769" height="11.055"/>
	
		<rect x="31.532" y="316.425" fill="#76538F" stroke="#FFFFFF" stroke-width="0.25" stroke-miterlimit="10" width="10.769" height="6.142"/>
	
		<rect x="43.498" y="320.316" fill="#A17C8B" stroke="#FFFFFF" stroke-width="0.25" stroke-miterlimit="10" width="10.769" height="2.251"/>
	
		<rect x="55.494" y="322.159" fill="#F2CEA6" stroke="#FFFFFF" stroke-width="0.25" stroke-miterlimit="10" width="10.769" height="0.408"/>
	
		<rect x="163.306" y="321.954" fill="#DEF9FF" stroke="#FFFFFF" stroke-width="0.25" stroke-miterlimit="10" width="10.769" height="0.613"/>
	
		<rect x="175.271" y="312.332" fill="#FFF7D7" stroke="#FFFFFF" stroke-width="0.25" stroke-miterlimit="10" width="10.77" height="10.235"/>
	
		<rect x="187.268" y="316.016" fill="#FFF0B3" stroke="#FFFFFF" stroke-width="0.25" stroke-miterlimit="10" width="10.769" height="6.551"/>
	
		<rect x="199.233" y="290.426" fill="#FFF48F" stroke="#FFFFFF" stroke-width="0.25" stroke-miterlimit="10" width="10.769" height="32.141"/>
	
		<rect x="211.23" y="277.837" fill="#F9CB83" stroke="#FFFFFF" stroke-width="0.25" stroke-miterlimit="10" width="10.77" height="44.73"/>
	
		<rect x="223.195" y="315.504" fill="#EB857E" stroke="#FFFFFF" stroke-width="0.25" stroke-miterlimit="10" width="10.769" height="7.063"/>
	
		<rect x="235.161" y="289.916" fill="#DB6B7E" stroke="#FFFFFF" stroke-width="0.25" stroke-miterlimit="10" width="10.769" height="32.651"/>
	
		<rect x="247.157" y="296.159" fill="#B24581" stroke="#FFFFFF" stroke-width="0.25" stroke-miterlimit="10" width="10.769" height="26.408"/>
	
		<rect x="259.122" y="293.805" fill="#692586" stroke="#FFFFFF" stroke-width="0.25" stroke-miterlimit="10" width="10.77" height="28.762"/>
	
		<rect x="271.118" y="301.89" fill="#2E365F" stroke="#FFFFFF" stroke-width="0.25" stroke-miterlimit="10" width="10.769" height="20.677"/>
	
		<rect x="283.084" y="293.805" fill="#2B2472" stroke="#FFFFFF" stroke-width="0.25" stroke-miterlimit="10" width="10.769" height="28.762"/>
	<line fill="none" stroke="#FFFFFF" stroke-miterlimit="10" x1="7.57" y1="323.522" x2="294.584" y2="323.522"/>
	<line fill="none" stroke="#FFFFFF" stroke-miterlimit="10" x1="7.496" y1="429.259" x2="294.51" y2="429.259"/>
	<line fill="none" stroke="#FFFFFF" stroke-miterlimit="10" x1="7.942" y1="481.718" x2="294.955" y2="481.718"/>
	<line fill="none" stroke="#FFFFFF" stroke-miterlimit="10" x1="7.793" y1="376.473" x2="294.807" y2="376.473"/>
	<line fill="none" stroke="#FFFFFF" stroke-miterlimit="10" x1="7.793" y1="270.735" x2="294.807" y2="270.735"/>
	<line fill="none" stroke="#FFFFFF" stroke-miterlimit="10" x1="7.199" y1="218.604" x2="294.213" y2="218.604"/>
	<g style="opacity:0.4;">
		
			<line fill="none" stroke="#FFFFFF" stroke-width="0.5" stroke-miterlimit="10" x1="103.94" y1="164.931" x2="103.942" y2="166.931"/>
		
			<line fill="none" stroke="#FFFFFF" stroke-width="0.5" stroke-miterlimit="10" stroke-dasharray="3.9656,3.9656" x1="103.945" y1="170.896" x2="104.152" y2="478.227"/>
		
			<line fill="none" stroke="#FFFFFF" stroke-width="0.5" stroke-miterlimit="10" x1="104.153" y1="480.21" x2="104.154" y2="482.21"/>
	</g>
	<g style="opacity:0.4;">
		
			<line fill="none" stroke="#FFFFFF" stroke-width="0.5" stroke-miterlimit="10" x1="55.389" y1="164.439" x2="55.39" y2="166.439"/>
		
			<line fill="none" stroke="#FFFFFF" stroke-width="0.5" stroke-miterlimit="10" stroke-dasharray="3.9656,3.9656" x1="55.393" y1="170.404" x2="55.6" y2="477.736"/>
		
			<line fill="none" stroke="#FFFFFF" stroke-width="0.5" stroke-miterlimit="10" x1="55.601" y1="479.718" x2="55.603" y2="481.718"/>
	</g>
	
		<line style="opacity:0.4;" fill="none" stroke="#FFFFFF" stroke-miterlimit="10" x1="6.837" y1="166.792" x2="7.051" y2="484.072"/>
	<g style="opacity:0.4;">
		
			<line fill="none" stroke="#FFFFFF" stroke-width="0.5" stroke-miterlimit="10" x1="151.156" y1="163.455" x2="151.157" y2="165.455"/>
		
			<line fill="none" stroke="#FFFFFF" stroke-width="0.5" stroke-miterlimit="10" stroke-dasharray="3.9656,3.9656" x1="151.16" y1="169.421" x2="151.367" y2="476.752"/>
		
			<line fill="none" stroke="#FFFFFF" stroke-width="0.5" stroke-miterlimit="10" x1="151.369" y1="478.735" x2="151.37" y2="480.735"/>
	</g>
	<g style="opacity:0.4;">
		
			<line fill="none" stroke="#FFFFFF" stroke-width="0.5" stroke-miterlimit="10" x1="199.262" y1="163.455" x2="199.264" y2="165.455"/>
		
			<line fill="none" stroke="#FFFFFF" stroke-width="0.5" stroke-miterlimit="10" stroke-dasharray="3.9656,3.9656" x1="199.267" y1="169.421" x2="199.474" y2="476.752"/>
		
			<line fill="none" stroke="#FFFFFF" stroke-width="0.5" stroke-miterlimit="10" x1="199.475" y1="478.735" x2="199.476" y2="480.735"/>
	</g>
	<g style="opacity:0.4;">
		
			<line fill="none" stroke="#FFFFFF" stroke-width="0.5" stroke-miterlimit="10" x1="246.478" y1="164.439" x2="246.479" y2="166.439"/>
		
			<line fill="none" stroke="#FFFFFF" stroke-width="0.5" stroke-miterlimit="10" stroke-dasharray="3.9656,3.9656" x1="246.482" y1="170.404" x2="246.689" y2="477.736"/>
		
			<line fill="none" stroke="#FFFFFF" stroke-width="0.5" stroke-miterlimit="10" x1="246.69" y1="479.718" x2="246.691" y2="481.718"/>
	</g>
	<g style="opacity:0.4;">
		
			<line fill="none" stroke="#FFFFFF" stroke-width="0.5" stroke-miterlimit="10" x1="297.621" y1="164.439" x2="297.623" y2="166.439"/>
		
			<line fill="none" stroke="#FFFFFF" stroke-width="0.5" stroke-miterlimit="10" stroke-dasharray="3.9656,3.9656" x1="297.625" y1="170.404" x2="297.835" y2="477.736"/>
		
			<line fill="none" stroke="#FFFFFF" stroke-width="0.5" stroke-miterlimit="10" x1="297.836" y1="479.718" x2="297.837" y2="481.718"/>
	</g>
	<g>
		<line fill="#FFFCFC" x1="214.944" y1="227.887" x2="166.543" y2="227.887"/>
		<g>
			
				<line fill="none" stroke="#FFFFFF" stroke-width="0.673" stroke-miterlimit="10" x1="214.944" y1="227.887" x2="172.505" y2="227.887"/>
			<g>
				<polygon fill="#FFFFFF" points="173.839,225.931 166.543,227.887 173.839,229.842 				"/>
			</g>
		</g>
	</g>
	<g>
		<line fill="#FFFCFC" x1="95.963" y1="388.487" x2="22.519" y2="388.487"/>
		<g>
			
				<line fill="none" stroke="#FFFFFF" stroke-width="0.673" stroke-miterlimit="10" x1="95.963" y1="388.487" x2="28.481" y2="388.487"/>
			<g>
				<polygon fill="#FFFFFF" points="29.814,386.532 22.519,388.487 29.814,390.443 				"/>
			</g>
		</g>
	</g>
	<path fill="none" d="M13.674,409.334"/>
</g>
<style>
#g-ridgehisto-_1_-mobile-img rect, #g-ridgehisto-_1_-mobile-img circle, #g-ridgehisto-_1_-mobile-img path, #g-ridgehisto-_1_-mobile-img line, #g-ridgehisto-_1_-mobile-img polyline { vector-effect: non-scaling-stroke; }
</style>
</svg>

