<?xml version="1.0" encoding="utf-8"?>
<!-- Generator: Adobe Illustrator 22.1.0, SVG Export Plug-In . SVG Version: 6.00 Build 0)  -->
<svg version="1.2" baseProfile="tiny" id="Layer_1" xmlns="http://www.w3.org/2000/svg" xmlns:xlink="http://www.w3.org/1999/xlink"
	 x="0px" y="0px" viewBox="0 0 600 930.448" xml:space="preserve">
<g>
	<rect x="0.003" y="0.329" fill="#201C38" width="600" height="929.624"/>
	
		<rect x="493.363" y="263.499" fill="#B24581" stroke="#FFFFFF" stroke-width="0.25" stroke-miterlimit="10" width="21.322" height="0.807"/>
	
		<rect x="137.549" y="263.095" fill="#FFEFA1" stroke="#FFFFFF" stroke-width="0.25" stroke-miterlimit="10" width="21.324" height="1.21"/>
	
		<rect x="161.303" y="244.113" fill="#FFF0B3" stroke="#FFFFFF" stroke-width="0.25" stroke-miterlimit="10" width="21.324" height="20.193"/>
	
		<rect x="184.995" y="251.381" fill="#FDFFDE" stroke="#FFFFFF" stroke-width="0.25" stroke-miterlimit="10" width="21.324" height="12.925"/>
	
		<rect x="208.748" y="200.892" fill="#DEF9FF" stroke="#FFFFFF" stroke-width="0.25" stroke-miterlimit="10" width="21.324" height="63.414"/>
	
		<rect x="232.441" y="176.054" fill="#DEF9FF" stroke="#FFFFFF" stroke-width="0.25" stroke-miterlimit="10" width="21.324" height="88.252"/>
	
		<rect x="256.133" y="250.371" fill="#FDFFFF" stroke="#FFFFFF" stroke-width="0.25" stroke-miterlimit="10" width="21.324" height="13.935"/>
	
		<rect x="279.886" y="199.887" fill="#FDFFFF" stroke="#FFFFFF" stroke-width="0.25" stroke-miterlimit="10" width="21.324" height="64.419"/>
	
		<rect x="303.579" y="212.204" fill="#DEF9FF" stroke="#FFFFFF" stroke-width="0.25" stroke-miterlimit="10" width="21.324" height="52.102"/>
	
		<rect x="327.332" y="207.559" fill="#DEF9FF" stroke="#FFFFFF" stroke-width="0.25" stroke-miterlimit="10" width="21.325" height="56.747"/>
	
		<rect x="351.024" y="223.511" fill="#FFF7D7" stroke="#FFFFFF" stroke-width="0.25" stroke-miterlimit="10" width="21.324" height="40.795"/>
	
		<rect x="374.779" y="207.559" fill="#FFF0B3" stroke="#FFFFFF" stroke-width="0.25" stroke-miterlimit="10" width="21.324" height="56.747"/>
	
		<rect x="398.471" y="246.736" fill="#FFF48F" stroke="#FFFFFF" stroke-width="0.25" stroke-miterlimit="10" width="21.325" height="17.57"/>
	
		<rect x="422.224" y="242.494" fill="#F9CB83" stroke="#FFFFFF" stroke-width="0.25" stroke-miterlimit="10" width="21.324" height="21.812"/>
	
		<rect x="445.917" y="252.187" fill="#EB857E" stroke="#FFFFFF" stroke-width="0.25" stroke-miterlimit="10" width="21.324" height="12.119"/>
	
		<rect x="469.61" y="259.865" fill="#DB6B7E" stroke="#FFFFFF" stroke-width="0.25" stroke-miterlimit="10" width="21.324" height="4.441"/>
	
		<rect x="208.201" y="367.179" fill="#CAF8FF" stroke="#FFFFFF" stroke-width="0.25" stroke-miterlimit="10" width="21.262" height="1.21"/>
	
		<rect x="231.825" y="348.196" fill="#DEF9FF" stroke="#FFFFFF" stroke-width="0.25" stroke-miterlimit="10" width="21.262" height="20.193"/>
	
		<rect x="255.45" y="355.464" fill="#FDFFFF" stroke="#FFFFFF" stroke-width="0.25" stroke-miterlimit="10" width="21.262" height="12.925"/>
	
		<rect x="279.135" y="304.976" fill="#FDFFFF" stroke="#FFFFFF" stroke-width="0.25" stroke-miterlimit="10" width="21.262" height="63.414"/>
	
		<rect x="302.759" y="280.137" fill="#DEF9FF" stroke="#FFFFFF" stroke-width="0.25" stroke-miterlimit="10" width="21.262" height="88.252"/>
	
		<rect x="326.444" y="354.454" fill="#DEF9FF" stroke="#FFFFFF" stroke-width="0.25" stroke-miterlimit="10" width="21.262" height="13.935"/>
	
		<rect x="350.067" y="303.971" fill="#FFF7D7" stroke="#FFFFFF" stroke-width="0.25" stroke-miterlimit="10" width="21.262" height="64.419"/>
	
		<rect x="373.753" y="316.288" fill="#FFF0B3" stroke="#FFFFFF" stroke-width="0.25" stroke-miterlimit="10" width="21.262" height="52.102"/>
	
		<rect x="397.377" y="311.643" fill="#FFF48F" stroke="#FFFFFF" stroke-width="0.25" stroke-miterlimit="10" width="21.262" height="56.747"/>
	
		<rect x="421.063" y="327.594" fill="#F9CB83" stroke="#FFFFFF" stroke-width="0.25" stroke-miterlimit="10" width="21.26" height="40.795"/>
	
		<rect x="444.686" y="311.643" fill="#EB857E" stroke="#FFFFFF" stroke-width="0.25" stroke-miterlimit="10" width="21.262" height="56.747"/>
	
		<rect x="468.311" y="350.819" fill="#DB6B7E" stroke="#FFFFFF" stroke-width="0.25" stroke-miterlimit="10" width="21.262" height="17.57"/>
	
		<rect x="491.996" y="346.578" fill="#B24581" stroke="#FFFFFF" stroke-width="0.25" stroke-miterlimit="10" width="21.262" height="21.812"/>
	
		<rect x="515.62" y="356.27" fill="#692586" stroke="#FFFFFF" stroke-width="0.25" stroke-miterlimit="10" width="21.262" height="12.119"/>
	
		<rect x="539.305" y="363.949" fill="#2E365F" stroke="#FFFFFF" stroke-width="0.25" stroke-miterlimit="10" width="21.262" height="4.441"/>
	
		<rect x="562.928" y="367.583" fill="#2B2472" stroke="#FFFFFF" stroke-width="0.25" stroke-miterlimit="10" width="21.262" height="0.807"/>
	
		<rect x="184.371" y="575.753" fill="#B6E7CF" stroke="#FFFFFF" stroke-width="0.25" stroke-miterlimit="10" width="21.248" height="0.805"/>
	
		<rect x="397.09" y="575.348" fill="#FFF48F" stroke="#FFFFFF" stroke-width="0.25" stroke-miterlimit="10" width="21.248" height="1.21"/>
	
		<rect x="18.817" y="519.811" fill="#2B2472" stroke="#FFFFFF" stroke-width="0.25" stroke-miterlimit="10" width="21.248" height="56.747"/>
	
		<rect x="42.486" y="535.762" fill="#2B345D" stroke="#FFFFFF" stroke-width="0.25" stroke-miterlimit="10" width="21.248" height="40.796"/>
	
		<rect x="66.242" y="519.811" fill="#76538F" stroke="#FFFFFF" stroke-width="0.25" stroke-miterlimit="10" width="21.248" height="56.747"/>
	
		<rect x="89.704" y="558.988" fill="#A17C8B" stroke="#FFFFFF" stroke-width="0.25" stroke-miterlimit="10" width="21.248" height="17.57"/>
	
		<rect x="113.373" y="554.746" fill="#F2CEA6" stroke="#FFFFFF" stroke-width="0.25" stroke-miterlimit="10" width="21.248" height="21.812"/>
	
		<rect x="136.982" y="564.439" fill="#FBF6AD" stroke="#FFFFFF" stroke-width="0.25" stroke-miterlimit="10" width="21.248" height="12.119"/>
	
		<rect x="160.651" y="572.118" fill="#DAF3C0" stroke="#FFFFFF" stroke-width="0.25" stroke-miterlimit="10" width="21.248" height="4.44"/>
	
		<rect x="420.648" y="556.365" fill="#F9CB83" stroke="#FFFFFF" stroke-width="0.25" stroke-miterlimit="10" width="21.25" height="20.193"/>
	
		<rect x="444.257" y="563.633" fill="#EB857E" stroke="#FFFFFF" stroke-width="0.25" stroke-miterlimit="10" width="21.247" height="12.925"/>
	
		<rect x="467.865" y="513.143" fill="#DB6B7E" stroke="#FFFFFF" stroke-width="0.25" stroke-miterlimit="10" width="21.248" height="63.414"/>
	
		<rect x="491.536" y="488.305" fill="#B24581" stroke="#FFFFFF" stroke-width="0.25" stroke-miterlimit="10" width="21.248" height="88.253"/>
	
		<rect x="515.143" y="562.623" fill="#692586" stroke="#FFFFFF" stroke-width="0.25" stroke-miterlimit="10" width="21.25" height="13.935"/>
	
		<rect x="538.813" y="512.138" fill="#2E365F" stroke="#FFFFFF" stroke-width="0.25" stroke-miterlimit="10" width="21.248" height="64.42"/>
	
		<rect x="562.422" y="524.456" fill="#2B2472" stroke="#FFFFFF" stroke-width="0.25" stroke-miterlimit="10" width="21.25" height="52.102"/>
	
		<rect x="281.153" y="679.836" fill="#FDFFFF" stroke="#FFFFFF" stroke-width="0.25" stroke-miterlimit="10" width="21.248" height="0.806"/>
	
		<rect x="491.875" y="679.431" fill="#B24581" stroke="#FFFFFF" stroke-width="0.25" stroke-miterlimit="10" width="21.248" height="1.21"/>
	
		<rect x="18.817" y="592.388" fill="#2B2472" stroke="#FFFFFF" stroke-width="0.25" stroke-miterlimit="10" width="21.248" height="88.253"/>
	
		<rect x="42.486" y="666.706" fill="#2B345D" stroke="#FFFFFF" stroke-width="0.25" stroke-miterlimit="10" width="21.248" height="13.935"/>
	
		<rect x="66.241" y="616.222" fill="#76538F" stroke="#FFFFFF" stroke-width="0.25" stroke-miterlimit="10" width="21.248" height="64.42"/>
	
		<rect x="89.704" y="628.539" fill="#A17C8B" stroke="#FFFFFF" stroke-width="0.25" stroke-miterlimit="10" width="21.248" height="52.103"/>
	
		<rect x="113.373" y="623.895" fill="#FFCD9C" stroke="#FFFFFF" stroke-width="0.25" stroke-miterlimit="10" width="21.248" height="56.747"/>
	
		<rect x="136.982" y="639.846" fill="#FFEFA1" stroke="#FFFFFF" stroke-width="0.25" stroke-miterlimit="10" width="21.248" height="40.795"/>
	
		<rect x="160.651" y="623.895" fill="#FFF0B3" stroke="#FFFFFF" stroke-width="0.25" stroke-miterlimit="10" width="21.248" height="56.747"/>
	
		<rect x="184.26" y="663.07" fill="#FDFFDE" stroke="#FFFFFF" stroke-width="0.25" stroke-miterlimit="10" width="21.248" height="17.571"/>
	
		<rect x="207.929" y="658.83" fill="#DEF9FF" stroke="#FFFFFF" stroke-width="0.25" stroke-miterlimit="10" width="21.248" height="21.812"/>
	
		<rect x="231.537" y="668.522" fill="#DEF9FF" stroke="#FFFFFF" stroke-width="0.25" stroke-miterlimit="10" width="21.248" height="12.119"/>
	
		<rect x="255.147" y="676.2" fill="#FDFFFF" stroke="#FFFFFF" stroke-width="0.25" stroke-miterlimit="10" width="21.248" height="4.441"/>
	
		<rect x="515.145" y="660.448" fill="#692586" stroke="#FFFFFF" stroke-width="0.25" stroke-miterlimit="10" width="21.25" height="20.193"/>
	
		<rect x="538.814" y="668.675" fill="#2E365F" stroke="#FFFFFF" stroke-width="0.25" stroke-miterlimit="10" width="21.248" height="11.966"/>
	
		<rect x="562.423" y="617.227" fill="#2B2472" stroke="#FFFFFF" stroke-width="0.25" stroke-miterlimit="10" width="21.248" height="63.415"/>
	
		<rect x="18.817" y="783.513" fill="#2B2472" stroke="#FFFFFF" stroke-width="0.25" stroke-miterlimit="10" width="21.248" height="1.209"/>
	
		<rect x="42.487" y="764.531" fill="#2B345D" stroke="#FFFFFF" stroke-width="0.25" stroke-miterlimit="10" width="21.248" height="20.191"/>
	
		<rect x="66.094" y="771.798" fill="#76538F" stroke="#FFFFFF" stroke-width="0.25" stroke-miterlimit="10" width="21.248" height="12.925"/>
	
		<rect x="89.851" y="721.31" fill="#A17C8B" stroke="#FFFFFF" stroke-width="0.25" stroke-miterlimit="10" width="21.248" height="63.413"/>
	
		<rect x="113.373" y="696.472" fill="#FFCD9C" stroke="#FFFFFF" stroke-width="0.25" stroke-miterlimit="10" width="21.248" height="88.25"/>
	
		<rect x="136.982" y="770.787" fill="#FFEFA1" stroke="#FFFFFF" stroke-width="0.25" stroke-miterlimit="10" width="21.248" height="13.935"/>
	
		<rect x="160.651" y="720.305" fill="#FFF0B3" stroke="#FFFFFF" stroke-width="0.25" stroke-miterlimit="10" width="21.248" height="64.417"/>
	
		<rect x="184.259" y="732.622" fill="#FDFFDE" stroke="#FFFFFF" stroke-width="0.25" stroke-miterlimit="10" width="21.248" height="52.1"/>
	
		<rect x="207.928" y="727.977" fill="#DEF9FF" stroke="#FFFFFF" stroke-width="0.25" stroke-miterlimit="10" width="21.248" height="56.745"/>
	
		<rect x="231.536" y="743.929" fill="#DEF9FF" stroke="#FFFFFF" stroke-width="0.25" stroke-miterlimit="10" width="21.248" height="40.793"/>
	
		<rect x="255.146" y="727.977" fill="#FDFFFF" stroke="#FFFFFF" stroke-width="0.25" stroke-miterlimit="10" width="21.247" height="56.745"/>
	
		<rect x="278.815" y="767.154" fill="#FDFFFF" stroke="#FFFFFF" stroke-width="0.25" stroke-miterlimit="10" width="21.248" height="17.569"/>
	
		<rect x="302.423" y="762.912" fill="#DEF9FF" stroke="#FFFFFF" stroke-width="0.25" stroke-miterlimit="10" width="21.249" height="21.81"/>
	
		<rect x="326.093" y="772.604" fill="#DEF9FF" stroke="#FFFFFF" stroke-width="0.25" stroke-miterlimit="10" width="21.249" height="12.118"/>
	
		<rect x="349.702" y="780.282" fill="#FFF7D7" stroke="#FFFFFF" stroke-width="0.25" stroke-miterlimit="10" width="21.248" height="4.44"/>
	
		<rect x="373.372" y="783.916" fill="#FFF0B3" stroke="#FFFFFF" stroke-width="0.25" stroke-miterlimit="10" width="21.248" height="0.806"/>
	<line fill="none" stroke="#FFFFFF" stroke-width="3" stroke-miterlimit="10" x1="16.514" y1="160.482" x2="590.246" y2="160.482"/>
	
		<rect x="17.961" y="454.907" fill="#2B2472" stroke="#FFFFFF" stroke-width="0.25" stroke-miterlimit="10" width="21.248" height="17.57"/>
	
		<rect x="41.63" y="450.664" fill="#2B345D" stroke="#FFFFFF" stroke-width="0.25" stroke-miterlimit="10" width="21.248" height="21.813"/>
	
		<rect x="65.238" y="460.358" fill="#76538F" stroke="#FFFFFF" stroke-width="0.25" stroke-miterlimit="10" width="21.248" height="12.119"/>
	
		<rect x="88.847" y="468.036" fill="#A17C8B" stroke="#FFFFFF" stroke-width="0.25" stroke-miterlimit="10" width="21.248" height="4.441"/>
	
		<rect x="112.516" y="471.671" fill="#F2CEA6" stroke="#FFFFFF" stroke-width="0.25" stroke-miterlimit="10" width="21.248" height="0.806"/>
	
		<rect x="325.236" y="471.266" fill="#DEF9FF" stroke="#FFFFFF" stroke-width="0.25" stroke-miterlimit="10" width="21.247" height="1.21"/>
	
		<rect x="348.843" y="452.282" fill="#FFF7D7" stroke="#FFFFFF" stroke-width="0.25" stroke-miterlimit="10" width="21.249" height="20.194"/>
	
		<rect x="372.513" y="459.552" fill="#FFF0B3" stroke="#FFFFFF" stroke-width="0.25" stroke-miterlimit="10" width="21.248" height="12.925"/>
	
		<rect x="396.122" y="409.061" fill="#FFF48F" stroke="#FFFFFF" stroke-width="0.25" stroke-miterlimit="10" width="21.248" height="63.416"/>
	
		<rect x="419.791" y="384.221" fill="#F9CB83" stroke="#FFFFFF" stroke-width="0.25" stroke-miterlimit="10" width="21.249" height="88.256"/>
	
		<rect x="443.399" y="458.541" fill="#EB857E" stroke="#FFFFFF" stroke-width="0.25" stroke-miterlimit="10" width="21.247" height="13.935"/>
	
		<rect x="467.009" y="408.055" fill="#DB6B7E" stroke="#FFFFFF" stroke-width="0.25" stroke-miterlimit="10" width="21.247" height="64.422"/>
	
		<rect x="490.678" y="420.373" fill="#B24581" stroke="#FFFFFF" stroke-width="0.25" stroke-miterlimit="10" width="21.248" height="52.104"/>
	
		<rect x="514.286" y="415.728" fill="#692586" stroke="#FFFFFF" stroke-width="0.25" stroke-miterlimit="10" width="21.25" height="56.749"/>
	
		<rect x="537.955" y="431.68" fill="#2E365F" stroke="#FFFFFF" stroke-width="0.25" stroke-miterlimit="10" width="21.248" height="40.797"/>
	
		<rect x="561.564" y="415.728" fill="#2B2472" stroke="#FFFFFF" stroke-width="0.25" stroke-miterlimit="10" width="21.247" height="56.749"/>
	<line fill="none" stroke="#FFFFFF" stroke-miterlimit="10" x1="17.961" y1="474.36" x2="584.254" y2="474.36"/>
	<line fill="none" stroke="#FFFFFF" stroke-miterlimit="10" x1="17.815" y1="682.986" x2="584.107" y2="682.986"/>
	<line fill="none" stroke="#FFFFFF" stroke-miterlimit="10" x1="18.694" y1="786.49" x2="584.986" y2="786.49"/>
	<line fill="none" stroke="#FFFFFF" stroke-miterlimit="10" x1="18.401" y1="578.835" x2="584.693" y2="578.835"/>
	<line fill="none" stroke="#FFFFFF" stroke-miterlimit="10" x1="18.401" y1="370.209" x2="584.693" y2="370.209"/>
	<line fill="none" stroke="#FFFFFF" stroke-miterlimit="10" x1="17.229" y1="267.352" x2="583.521" y2="267.352"/>
	<g>
		
			<line fill="none" stroke="#FFFFFF" stroke-width="0.5" stroke-miterlimit="10" x1="208.105" y1="161.452" x2="208.105" y2="163.452"/>
		
			<line fill="none" stroke="#FFFFFF" stroke-width="0.5" stroke-miterlimit="10" stroke-dasharray="4.013,4.013" x1="208.108" y1="167.465" x2="208.523" y2="783.454"/>
		
			<line fill="none" stroke="#FFFFFF" stroke-width="0.5" stroke-miterlimit="10" x1="208.524" y1="785.461" x2="208.526" y2="787.461"/>
	</g>
	<g>
		
			<line fill="none" stroke="#FFFFFF" stroke-width="0.5" stroke-miterlimit="10" x1="112.309" y1="160.482" x2="112.311" y2="162.482"/>
		
			<line fill="none" stroke="#FFFFFF" stroke-width="0.5" stroke-miterlimit="10" stroke-dasharray="4.013,4.013" x1="112.313" y1="166.495" x2="112.728" y2="782.484"/>
		
			<line fill="none" stroke="#FFFFFF" stroke-width="0.5" stroke-miterlimit="10" x1="112.73" y1="784.49" x2="112.731" y2="786.49"/>
	</g>
	<line fill="none" stroke="#FFFFFF" stroke-miterlimit="10" x1="16.514" y1="160.482" x2="16.936" y2="786.49"/>
	<g>
		
			<line fill="none" stroke="#FFFFFF" stroke-width="0.5" stroke-miterlimit="10" x1="301.263" y1="158.541" x2="301.264" y2="160.541"/>
		
			<line fill="none" stroke="#FFFFFF" stroke-width="0.5" stroke-miterlimit="10" stroke-dasharray="4.013,4.013" x1="301.267" y1="164.554" x2="301.682" y2="780.543"/>
		
			<line fill="none" stroke="#FFFFFF" stroke-width="0.5" stroke-miterlimit="10" x1="301.683" y1="782.55" x2="301.685" y2="784.55"/>
	</g>
	<g>
		
			<line fill="none" stroke="#FFFFFF" stroke-width="0.5" stroke-miterlimit="10" x1="396.179" y1="158.541" x2="396.18" y2="160.541"/>
		
			<line fill="none" stroke="#FFFFFF" stroke-width="0.5" stroke-miterlimit="10" stroke-dasharray="4.013,4.013" x1="396.183" y1="164.554" x2="396.598" y2="780.543"/>
		<line fill="none" stroke="#FFFFFF" stroke-width="0.5" stroke-miterlimit="10" x1="396.6" y1="782.55" x2="396.601" y2="784.55"/>
	</g>
	<g>
		
			<line fill="none" stroke="#FFFFFF" stroke-width="0.5" stroke-miterlimit="10" x1="489.337" y1="160.482" x2="489.339" y2="162.482"/>
		
			<line fill="none" stroke="#FFFFFF" stroke-width="0.5" stroke-miterlimit="10" stroke-dasharray="4.013,4.013" x1="489.342" y1="166.495" x2="489.756" y2="782.484"/>
		
			<line fill="none" stroke="#FFFFFF" stroke-width="0.5" stroke-miterlimit="10" x1="489.758" y1="784.49" x2="489.759" y2="786.49"/>
	</g>
	<g>
		
			<line fill="none" stroke="#FFFFFF" stroke-width="0.5" stroke-miterlimit="10" x1="590.246" y1="160.482" x2="590.248" y2="162.482"/>
		
			<line fill="none" stroke="#FFFFFF" stroke-width="0.5" stroke-miterlimit="10" stroke-dasharray="4.013,4.013" x1="590.25" y1="166.495" x2="590.669" y2="782.484"/>
		
			<line fill="none" stroke="#FFFFFF" stroke-width="0.5" stroke-miterlimit="10" x1="590.671" y1="784.49" x2="590.672" y2="786.49"/>
	</g>
</g>
</svg>
