<?xml version="1.0" encoding="utf-8"?>
<!-- Generator: Adobe Illustrator 22.1.0, SVG Export Plug-In . SVG Version: 6.00 Build 0)  -->
<svg version="1.2" baseProfile="tiny" id="Layer_1" xmlns="http://www.w3.org/2000/svg" xmlns:xlink="http://www.w3.org/1999/xlink"
	 x="0px" y="0px" viewBox="0 0 300 600" xml:space="preserve">
<g>
	<rect x="0.003" y="-0.083" fill="#201C38" width="300" height="600"/>
	
		<rect x="247.795" y="197.852" fill="#B24581" stroke="#FFFFFF" stroke-width="0.25" stroke-miterlimit="10" width="10.807" height="0.409"/>
	
		<rect x="67.458" y="197.648" fill="#FFEFA1" stroke="#FFFFFF" stroke-width="0.25" stroke-miterlimit="10" width="10.808" height="0.613"/>
	
		<rect x="79.497" y="188.027" fill="#FFF0B3" stroke="#FFFFFF" stroke-width="0.25" stroke-miterlimit="10" width="10.808" height="10.235"/>
	
		<rect x="91.505" y="191.71" fill="#FDFFDE" stroke="#FFFFFF" stroke-width="0.25" stroke-miterlimit="10" width="10.808" height="6.551"/>
	
		<rect x="103.544" y="166.121" fill="#DEF9FF" stroke="#FFFFFF" stroke-width="0.25" stroke-miterlimit="10" width="10.808" height="32.14"/>
	
		<rect x="115.552" y="153.533" fill="#DEF9FF" stroke="#FFFFFF" stroke-width="0.25" stroke-miterlimit="10" width="10.808" height="44.729"/>
	
		<rect x="127.56" y="191.198" fill="#FDFFFF" stroke="#FFFFFF" stroke-width="0.25" stroke-miterlimit="10" width="10.808" height="7.063"/>
	
		<rect x="139.599" y="165.612" fill="#FDFFFF" stroke="#FFFFFF" stroke-width="0.25" stroke-miterlimit="10" width="10.808" height="32.649"/>
	
		<rect x="151.607" y="171.855" fill="#DEF9FF" stroke="#FFFFFF" stroke-width="0.25" stroke-miterlimit="10" width="10.808" height="26.407"/>
	
		<rect x="163.646" y="169.5" fill="#DEF9FF" stroke="#FFFFFF" stroke-width="0.25" stroke-miterlimit="10" width="10.808" height="28.761"/>
	
		<rect x="175.654" y="177.585" fill="#FFF7D7" stroke="#FFFFFF" stroke-width="0.25" stroke-miterlimit="10" width="10.808" height="20.676"/>
	
		<rect x="187.693" y="169.5" fill="#FFF0B3" stroke="#FFFFFF" stroke-width="0.25" stroke-miterlimit="10" width="10.808" height="28.761"/>
	
		<rect x="199.701" y="189.356" fill="#FFF48F" stroke="#FFFFFF" stroke-width="0.25" stroke-miterlimit="10" width="10.808" height="8.905"/>
	
		<rect x="211.74" y="187.206" fill="#F9CB83" stroke="#FFFFFF" stroke-width="0.25" stroke-miterlimit="10" width="10.808" height="11.055"/>
	
		<rect x="223.748" y="192.119" fill="#EB857E" stroke="#FFFFFF" stroke-width="0.25" stroke-miterlimit="10" width="10.808" height="6.142"/>
	
		<rect x="235.756" y="196.011" fill="#DB6B7E" stroke="#FFFFFF" stroke-width="0.25" stroke-miterlimit="10" width="10.808" height="2.251"/>
	
		<rect x="103.267" y="250.4" fill="#CAF8FF" stroke="#FFFFFF" stroke-width="0.25" stroke-miterlimit="10" width="10.776" height="0.613"/>
	
		<rect x="115.24" y="240.779" fill="#DEF9FF" stroke="#FFFFFF" stroke-width="0.25" stroke-miterlimit="10" width="10.776" height="10.235"/>
	
		<rect x="127.214" y="244.463" fill="#FDFFFF" stroke="#FFFFFF" stroke-width="0.25" stroke-miterlimit="10" width="10.776" height="6.551"/>
	
		<rect x="139.218" y="218.874" fill="#FDFFFF" stroke="#FFFFFF" stroke-width="0.25" stroke-miterlimit="10" width="10.776" height="32.14"/>
	
		<rect x="151.191" y="206.285" fill="#DEF9FF" stroke="#FFFFFF" stroke-width="0.25" stroke-miterlimit="10" width="10.776" height="44.729"/>
	
		<rect x="163.196" y="243.951" fill="#DEF9FF" stroke="#FFFFFF" stroke-width="0.25" stroke-miterlimit="10" width="10.776" height="7.063"/>
	
		<rect x="175.169" y="218.365" fill="#FFF7D7" stroke="#FFFFFF" stroke-width="0.25" stroke-miterlimit="10" width="10.776" height="32.649"/>
	
		<rect x="187.173" y="224.607" fill="#FFF0B3" stroke="#FFFFFF" stroke-width="0.25" stroke-miterlimit="10" width="10.776" height="26.407"/>
	
		<rect x="199.147" y="222.253" fill="#FFF48F" stroke="#FFFFFF" stroke-width="0.25" stroke-miterlimit="10" width="10.776" height="28.761"/>
	
		<rect x="211.151" y="230.338" fill="#F9CB83" stroke="#FFFFFF" stroke-width="0.25" stroke-miterlimit="10" width="10.775" height="20.676"/>
	
		<rect x="223.124" y="222.253" fill="#EB857E" stroke="#FFFFFF" stroke-width="0.25" stroke-miterlimit="10" width="10.776" height="28.761"/>
	
		<rect x="235.098" y="242.109" fill="#DB6B7E" stroke="#FFFFFF" stroke-width="0.25" stroke-miterlimit="10" width="10.776" height="8.905"/>
	
		<rect x="247.102" y="239.959" fill="#B24581" stroke="#FFFFFF" stroke-width="0.25" stroke-miterlimit="10" width="10.776" height="11.055"/>
	
		<rect x="259.076" y="244.872" fill="#692586" stroke="#FFFFFF" stroke-width="0.25" stroke-miterlimit="10" width="10.776" height="6.142"/>
	
		<rect x="271.08" y="248.763" fill="#2E365F" stroke="#FFFFFF" stroke-width="0.25" stroke-miterlimit="10" width="10.776" height="2.251"/>
	
		<rect x="283.053" y="250.605" fill="#2B2472" stroke="#FFFFFF" stroke-width="0.25" stroke-miterlimit="10" width="10.776" height="0.409"/>
	
		<rect x="91.189" y="356.112" fill="#B6E7CF" stroke="#FFFFFF" stroke-width="0.25" stroke-miterlimit="10" width="10.769" height="0.408"/>
	
		<rect x="199.001" y="355.906" fill="#FFF48F" stroke="#FFFFFF" stroke-width="0.25" stroke-miterlimit="10" width="10.769" height="0.613"/>
	
		<rect x="7.281" y="327.759" fill="#2B2472" stroke="#FFFFFF" stroke-width="0.25" stroke-miterlimit="10" width="10.769" height="28.761"/>
	
		<rect x="19.277" y="335.843" fill="#2B345D" stroke="#FFFFFF" stroke-width="0.25" stroke-miterlimit="10" width="10.769" height="20.677"/>
	
		<rect x="31.317" y="327.759" fill="#76538F" stroke="#FFFFFF" stroke-width="0.25" stroke-miterlimit="10" width="10.769" height="28.761"/>
	
		<rect x="43.209" y="347.615" fill="#A17C8B" stroke="#FFFFFF" stroke-width="0.25" stroke-miterlimit="10" width="10.769" height="8.905"/>
	
		<rect x="55.205" y="345.465" fill="#F2CEA6" stroke="#FFFFFF" stroke-width="0.25" stroke-miterlimit="10" width="10.769" height="11.055"/>
	
		<rect x="67.171" y="350.377" fill="#FBF6AD" stroke="#FFFFFF" stroke-width="0.25" stroke-miterlimit="10" width="10.769" height="6.142"/>
	
		<rect x="79.167" y="354.269" fill="#DAF3C0" stroke="#FFFFFF" stroke-width="0.25" stroke-miterlimit="10" width="10.769" height="2.25"/>
	
		<rect x="210.941" y="346.285" fill="#F9CB83" stroke="#FFFFFF" stroke-width="0.25" stroke-miterlimit="10" width="10.77" height="10.235"/>
	
		<rect x="222.907" y="349.969" fill="#EB857E" stroke="#FFFFFF" stroke-width="0.25" stroke-miterlimit="10" width="10.769" height="6.551"/>
	
		<rect x="234.872" y="324.379" fill="#DB6B7E" stroke="#FFFFFF" stroke-width="0.25" stroke-miterlimit="10" width="10.769" height="32.14"/>
	
		<rect x="246.869" y="311.79" fill="#B24581" stroke="#FFFFFF" stroke-width="0.25" stroke-miterlimit="10" width="10.769" height="44.729"/>
	
		<rect x="258.834" y="349.457" fill="#692586" stroke="#FFFFFF" stroke-width="0.25" stroke-miterlimit="10" width="10.77" height="7.063"/>
	
		<rect x="270.83" y="323.87" fill="#2E365F" stroke="#FFFFFF" stroke-width="0.25" stroke-miterlimit="10" width="10.769" height="32.65"/>
	
		<rect x="282.796" y="330.113" fill="#2B2472" stroke="#FFFFFF" stroke-width="0.25" stroke-miterlimit="10" width="10.77" height="26.407"/>
	
		<rect x="140.241" y="408.864" fill="#FDFFFF" stroke="#FFFFFF" stroke-width="0.25" stroke-miterlimit="10" width="10.769" height="0.408"/>
	
		<rect x="247.041" y="408.659" fill="#B24581" stroke="#FFFFFF" stroke-width="0.25" stroke-miterlimit="10" width="10.769" height="0.613"/>
	
		<rect x="7.281" y="364.543" fill="#2B2472" stroke="#FFFFFF" stroke-width="0.25" stroke-miterlimit="10" width="10.769" height="44.729"/>
	
		<rect x="19.277" y="402.21" fill="#2B345D" stroke="#FFFFFF" stroke-width="0.25" stroke-miterlimit="10" width="10.769" height="7.063"/>
	
		<rect x="31.317" y="376.622" fill="#76538F" stroke="#FFFFFF" stroke-width="0.25" stroke-miterlimit="10" width="10.769" height="32.65"/>
	
		<rect x="43.209" y="382.865" fill="#A17C8B" stroke="#FFFFFF" stroke-width="0.25" stroke-miterlimit="10" width="10.769" height="26.407"/>
	
		<rect x="55.205" y="380.511" fill="#FFCD9C" stroke="#FFFFFF" stroke-width="0.25" stroke-miterlimit="10" width="10.769" height="28.761"/>
	
		<rect x="67.171" y="388.596" fill="#FFEFA1" stroke="#FFFFFF" stroke-width="0.25" stroke-miterlimit="10" width="10.769" height="20.676"/>
	
		<rect x="79.167" y="380.511" fill="#FFF0B3" stroke="#FFFFFF" stroke-width="0.25" stroke-miterlimit="10" width="10.769" height="28.761"/>
	
		<rect x="91.132" y="400.367" fill="#FDFFDE" stroke="#FFFFFF" stroke-width="0.25" stroke-miterlimit="10" width="10.769" height="8.906"/>
	
		<rect x="103.129" y="398.218" fill="#DEF9FF" stroke="#FFFFFF" stroke-width="0.25" stroke-miterlimit="10" width="10.769" height="11.055"/>
	
		<rect x="115.094" y="403.13" fill="#DEF9FF" stroke="#FFFFFF" stroke-width="0.25" stroke-miterlimit="10" width="10.769" height="6.142"/>
	
		<rect x="127.06" y="407.021" fill="#FDFFFF" stroke="#FFFFFF" stroke-width="0.25" stroke-miterlimit="10" width="10.769" height="2.251"/>
	
		<rect x="258.835" y="399.038" fill="#692586" stroke="#FFFFFF" stroke-width="0.25" stroke-miterlimit="10" width="10.77" height="10.235"/>
	
		<rect x="270.831" y="403.207" fill="#2E365F" stroke="#FFFFFF" stroke-width="0.25" stroke-miterlimit="10" width="10.769" height="6.065"/>
	
		<rect x="282.797" y="377.132" fill="#2B2472" stroke="#FFFFFF" stroke-width="0.25" stroke-miterlimit="10" width="10.769" height="32.141"/>
	
		<rect x="7.281" y="461.411" fill="#2B2472" stroke="#FFFFFF" stroke-width="0.25" stroke-miterlimit="10" width="10.769" height="0.613"/>
	
		<rect x="19.278" y="451.79" fill="#2B345D" stroke="#FFFFFF" stroke-width="0.25" stroke-miterlimit="10" width="10.769" height="10.233"/>
	
		<rect x="31.243" y="455.473" fill="#76538F" stroke="#FFFFFF" stroke-width="0.25" stroke-miterlimit="10" width="10.769" height="6.551"/>
	
		<rect x="43.283" y="429.884" fill="#A17C8B" stroke="#FFFFFF" stroke-width="0.25" stroke-miterlimit="10" width="10.769" height="32.139"/>
	
		<rect x="55.205" y="417.296" fill="#FFCD9C" stroke="#FFFFFF" stroke-width="0.25" stroke-miterlimit="10" width="10.769" height="44.728"/>
	
		<rect x="67.17" y="454.961" fill="#FFEFA1" stroke="#FFFFFF" stroke-width="0.25" stroke-miterlimit="10" width="10.769" height="7.063"/>
	
		<rect x="79.167" y="429.375" fill="#FFF0B3" stroke="#FFFFFF" stroke-width="0.25" stroke-miterlimit="10" width="10.769" height="32.648"/>
	
		<rect x="91.132" y="435.618" fill="#FDFFDE" stroke="#FFFFFF" stroke-width="0.25" stroke-miterlimit="10" width="10.769" height="26.406"/>
	
		<rect x="103.128" y="433.263" fill="#DEF9FF" stroke="#FFFFFF" stroke-width="0.25" stroke-miterlimit="10" width="10.769" height="28.76"/>
	
		<rect x="115.094" y="441.348" fill="#DEF9FF" stroke="#FFFFFF" stroke-width="0.25" stroke-miterlimit="10" width="10.769" height="20.675"/>
	
		<rect x="127.06" y="433.263" fill="#FDFFFF" stroke="#FFFFFF" stroke-width="0.25" stroke-miterlimit="10" width="10.769" height="28.76"/>
	
		<rect x="139.056" y="453.119" fill="#FDFFFF" stroke="#FFFFFF" stroke-width="0.25" stroke-miterlimit="10" width="10.769" height="8.904"/>
	
		<rect x="151.021" y="450.97" fill="#DEF9FF" stroke="#FFFFFF" stroke-width="0.25" stroke-miterlimit="10" width="10.77" height="11.054"/>
	
		<rect x="163.018" y="455.882" fill="#DEF9FF" stroke="#FFFFFF" stroke-width="0.25" stroke-miterlimit="10" width="10.77" height="6.142"/>
	
		<rect x="174.983" y="459.773" fill="#FFF7D7" stroke="#FFFFFF" stroke-width="0.25" stroke-miterlimit="10" width="10.769" height="2.25"/>
	
		<rect x="186.98" y="461.615" fill="#FFF0B3" stroke="#FFFFFF" stroke-width="0.25" stroke-miterlimit="10" width="10.769" height="0.408"/>
	<line fill="none" stroke="#FFFFFF" stroke-width="3" stroke-miterlimit="10" x1="6.114" y1="145.64" x2="296.898" y2="145.64"/>
	
		<rect x="6.847" y="294.863" fill="#2B2472" stroke="#FFFFFF" stroke-width="0.25" stroke-miterlimit="10" width="10.769" height="8.905"/>
	
		<rect x="18.844" y="292.713" fill="#2B345D" stroke="#FFFFFF" stroke-width="0.25" stroke-miterlimit="10" width="10.769" height="11.055"/>
	
		<rect x="30.809" y="297.626" fill="#76538F" stroke="#FFFFFF" stroke-width="0.25" stroke-miterlimit="10" width="10.769" height="6.142"/>
	
		<rect x="42.774" y="301.518" fill="#A17C8B" stroke="#FFFFFF" stroke-width="0.25" stroke-miterlimit="10" width="10.769" height="2.251"/>
	
		<rect x="54.771" y="303.36" fill="#F2CEA6" stroke="#FFFFFF" stroke-width="0.25" stroke-miterlimit="10" width="10.769" height="0.408"/>
	
		<rect x="162.583" y="303.155" fill="#DEF9FF" stroke="#FFFFFF" stroke-width="0.25" stroke-miterlimit="10" width="10.769" height="0.613"/>
	
		<rect x="174.548" y="293.533" fill="#FFF7D7" stroke="#FFFFFF" stroke-width="0.25" stroke-miterlimit="10" width="10.77" height="10.235"/>
	
		<rect x="186.545" y="297.217" fill="#FFF0B3" stroke="#FFFFFF" stroke-width="0.25" stroke-miterlimit="10" width="10.769" height="6.551"/>
	
		<rect x="198.51" y="271.627" fill="#FFF48F" stroke="#FFFFFF" stroke-width="0.25" stroke-miterlimit="10" width="10.769" height="32.141"/>
	
		<rect x="210.507" y="259.038" fill="#F9CB83" stroke="#FFFFFF" stroke-width="0.25" stroke-miterlimit="10" width="10.77" height="44.73"/>
	
		<rect x="222.472" y="296.705" fill="#EB857E" stroke="#FFFFFF" stroke-width="0.25" stroke-miterlimit="10" width="10.769" height="7.063"/>
	
		<rect x="234.438" y="271.117" fill="#DB6B7E" stroke="#FFFFFF" stroke-width="0.25" stroke-miterlimit="10" width="10.769" height="32.651"/>
	
		<rect x="246.434" y="277.361" fill="#B24581" stroke="#FFFFFF" stroke-width="0.25" stroke-miterlimit="10" width="10.769" height="26.408"/>
	
		<rect x="258.399" y="275.007" fill="#692586" stroke="#FFFFFF" stroke-width="0.25" stroke-miterlimit="10" width="10.77" height="28.762"/>
	
		<rect x="270.395" y="283.091" fill="#2E365F" stroke="#FFFFFF" stroke-width="0.25" stroke-miterlimit="10" width="10.769" height="20.677"/>
	
		<rect x="282.361" y="275.006" fill="#2B2472" stroke="#FFFFFF" stroke-width="0.25" stroke-miterlimit="10" width="10.769" height="28.762"/>
	<line fill="none" stroke="#FFFFFF" stroke-miterlimit="10" x1="6.847" y1="304.723" x2="293.861" y2="304.723"/>
	<line fill="none" stroke="#FFFFFF" stroke-miterlimit="10" x1="6.773" y1="410.461" x2="293.787" y2="410.461"/>
	<line fill="none" stroke="#FFFFFF" stroke-miterlimit="10" x1="7.219" y1="462.92" x2="294.232" y2="462.92"/>
	<line fill="none" stroke="#FFFFFF" stroke-miterlimit="10" x1="7.07" y1="357.674" x2="294.084" y2="357.674"/>
	<line fill="none" stroke="#FFFFFF" stroke-miterlimit="10" x1="7.07" y1="251.936" x2="294.084" y2="251.936"/>
	<line fill="none" stroke="#FFFFFF" stroke-miterlimit="10" x1="6.476" y1="199.805" x2="293.49" y2="199.805"/>
	<g>
		
			<line fill="none" stroke="#FFFFFF" stroke-width="0.5" stroke-miterlimit="10" x1="103.218" y1="146.132" x2="103.219" y2="148.132"/>
		
			<line fill="none" stroke="#FFFFFF" stroke-width="0.5" stroke-miterlimit="10" stroke-dasharray="3.9656,3.9656" x1="103.222" y1="152.097" x2="103.429" y2="459.429"/>
		
			<line fill="none" stroke="#FFFFFF" stroke-width="0.5" stroke-miterlimit="10" x1="103.43" y1="461.411" x2="103.431" y2="463.411"/>
	</g>
	<g>
		<line fill="none" stroke="#FFFFFF" stroke-width="0.5" stroke-miterlimit="10" x1="54.666" y1="145.64" x2="54.667" y2="147.64"/>
		
			<line fill="none" stroke="#FFFFFF" stroke-width="0.5" stroke-miterlimit="10" stroke-dasharray="3.9656,3.9656" x1="54.67" y1="151.606" x2="54.877" y2="458.937"/>
		
			<line fill="none" stroke="#FFFFFF" stroke-width="0.5" stroke-miterlimit="10" x1="54.878" y1="460.919" x2="54.879" y2="462.919"/>
	</g>
	<line fill="none" stroke="#FFFFFF" stroke-miterlimit="10" x1="6.114" y1="147.993" x2="6.328" y2="465.273"/>
	<g>
		
			<line fill="none" stroke="#FFFFFF" stroke-width="0.5" stroke-miterlimit="10" x1="150.433" y1="144.657" x2="150.435" y2="146.657"/>
		
			<line fill="none" stroke="#FFFFFF" stroke-width="0.5" stroke-miterlimit="10" stroke-dasharray="3.9656,3.9656" x1="150.437" y1="150.622" x2="150.644" y2="457.953"/>
		
			<line fill="none" stroke="#FFFFFF" stroke-width="0.5" stroke-miterlimit="10" x1="150.646" y1="459.936" x2="150.647" y2="461.936"/>
	</g>
	<g>
		
			<line fill="none" stroke="#FFFFFF" stroke-width="0.5" stroke-miterlimit="10" x1="198.54" y1="144.657" x2="198.541" y2="146.657"/>
		
			<line fill="none" stroke="#FFFFFF" stroke-width="0.5" stroke-miterlimit="10" stroke-dasharray="3.9656,3.9656" x1="198.543" y1="150.622" x2="198.751" y2="457.953"/>
		
			<line fill="none" stroke="#FFFFFF" stroke-width="0.5" stroke-miterlimit="10" x1="198.751" y1="459.936" x2="198.753" y2="461.936"/>
	</g>
	<g>
		
			<line fill="none" stroke="#FFFFFF" stroke-width="0.5" stroke-miterlimit="10" x1="245.755" y1="145.64" x2="245.756" y2="147.64"/>
		
			<line fill="none" stroke="#FFFFFF" stroke-width="0.5" stroke-miterlimit="10" stroke-dasharray="3.9656,3.9656" x1="245.759" y1="151.606" x2="245.966" y2="458.937"/>
		
			<line fill="none" stroke="#FFFFFF" stroke-width="0.5" stroke-miterlimit="10" x1="245.967" y1="460.919" x2="245.968" y2="462.919"/>
	</g>
	<g>
		
			<line fill="none" stroke="#FFFFFF" stroke-width="0.5" stroke-miterlimit="10" x1="296.898" y1="145.64" x2="296.899" y2="147.64"/>
		
			<line fill="none" stroke="#FFFFFF" stroke-width="0.5" stroke-miterlimit="10" stroke-dasharray="3.9656,3.9656" x1="296.902" y1="151.606" x2="297.111" y2="458.937"/>
		
			<line fill="none" stroke="#FFFFFF" stroke-width="0.5" stroke-miterlimit="10" x1="297.113" y1="460.919" x2="297.114" y2="462.919"/>
	</g>
</g>
</svg>
