<?xml version="1.0" encoding="utf-8"?>
<!-- Generator: Adobe Illustrator 22.1.0, SVG Export Plug-In . SVG Version: 6.00 Build 0)  -->
<svg version="1.2" baseProfile="tiny" id="Layer_1" xmlns="http://www.w3.org/2000/svg" xmlns:xlink="http://www.w3.org/1999/xlink"
	 x="0px" y="0px" viewBox="0 0 1200 760.462" xml:space="preserve">
<g>
	<rect x="-0.05" y="0.329" fill="#201C38" width="1200.093" height="761.53"/>
	
		<rect x="813.623" y="170.71" fill="#B24581" stroke="#FFFFFF" stroke-width="0.25" stroke-miterlimit="10" width="24.262" height="0.832"/>
	
		<rect x="408.761" y="170.295" fill="#FFEFA1" stroke="#FFFFFF" stroke-width="0.25" stroke-miterlimit="10" width="24.263" height="1.247"/>
	
		<rect x="435.79" y="150.732" fill="#FFF0B3" stroke="#FFFFFF" stroke-width="0.25" stroke-miterlimit="10" width="24.263" height="20.81"/>
	
		<rect x="462.748" y="158.222" fill="#FDFFDE" stroke="#FFFFFF" stroke-width="0.25" stroke-miterlimit="10" width="24.263" height="13.32"/>
	
		<rect x="489.775" y="106.191" fill="#DEF9FF" stroke="#FFFFFF" stroke-width="0.25" stroke-miterlimit="10" width="24.263" height="65.351"/>
	
		<rect x="516.734" y="80.594" fill="#DEF9FF" stroke="#FFFFFF" stroke-width="0.25" stroke-miterlimit="10" width="24.263" height="90.949"/>
	
		<rect x="543.692" y="157.181" fill="#FDFFFF" stroke="#FFFFFF" stroke-width="0.25" stroke-miterlimit="10" width="24.263" height="14.361"/>
	
		<rect x="570.719" y="105.155" fill="#FDFFFF" stroke="#FFFFFF" stroke-width="0.25" stroke-miterlimit="10" width="24.263" height="66.387"/>
	
		<rect x="597.678" y="117.848" fill="#DEF9FF" stroke="#FFFFFF" stroke-width="0.25" stroke-miterlimit="10" width="24.263" height="53.694"/>
	
		<rect x="624.705" y="113.062" fill="#DEF9FF" stroke="#FFFFFF" stroke-width="0.25" stroke-miterlimit="10" width="24.265" height="58.481"/>
	
		<rect x="651.663" y="129.501" fill="#FFF7D7" stroke="#FFFFFF" stroke-width="0.25" stroke-miterlimit="10" width="24.263" height="42.042"/>
	
		<rect x="678.692" y="113.062" fill="#FFF0B3" stroke="#FFFFFF" stroke-width="0.25" stroke-miterlimit="10" width="24.263" height="58.481"/>
	
		<rect x="705.65" y="153.435" fill="#FFF48F" stroke="#FFFFFF" stroke-width="0.25" stroke-miterlimit="10" width="24.265" height="18.107"/>
	
		<rect x="732.678" y="149.064" fill="#F9CB83" stroke="#FFFFFF" stroke-width="0.25" stroke-miterlimit="10" width="24.263" height="22.478"/>
	
		<rect x="759.637" y="159.053" fill="#EB857E" stroke="#FFFFFF" stroke-width="0.25" stroke-miterlimit="10" width="24.263" height="12.489"/>
	
		<rect x="786.595" y="166.966" fill="#DB6B7E" stroke="#FFFFFF" stroke-width="0.25" stroke-miterlimit="10" width="24.263" height="4.576"/>
	
		<rect x="489.152" y="277.559" fill="#CAF8FF" stroke="#FFFFFF" stroke-width="0.25" stroke-miterlimit="10" width="24.193" height="1.247"/>
	
		<rect x="516.033" y="257.996" fill="#DEF9FF" stroke="#FFFFFF" stroke-width="0.25" stroke-miterlimit="10" width="24.193" height="20.81"/>
	
		<rect x="542.914" y="265.486" fill="#FDFFFF" stroke="#FFFFFF" stroke-width="0.25" stroke-miterlimit="10" width="24.193" height="13.32"/>
	
		<rect x="569.864" y="213.454" fill="#FDFFFF" stroke="#FFFFFF" stroke-width="0.25" stroke-miterlimit="10" width="24.193" height="65.351"/>
	
		<rect x="596.745" y="187.857" fill="#DEF9FF" stroke="#FFFFFF" stroke-width="0.25" stroke-miterlimit="10" width="24.193" height="90.948"/>
	
		<rect x="623.695" y="264.445" fill="#DEF9FF" stroke="#FFFFFF" stroke-width="0.25" stroke-miterlimit="10" width="24.193" height="14.361"/>
	
		<rect x="650.574" y="212.419" fill="#FFF7D7" stroke="#FFFFFF" stroke-width="0.25" stroke-miterlimit="10" width="24.193" height="66.387"/>
	
		<rect x="677.525" y="225.112" fill="#FFF0B3" stroke="#FFFFFF" stroke-width="0.25" stroke-miterlimit="10" width="24.193" height="53.694"/>
	
		<rect x="704.406" y="220.325" fill="#FFF48F" stroke="#FFFFFF" stroke-width="0.25" stroke-miterlimit="10" width="24.193" height="58.481"/>
	
		<rect x="731.357" y="236.764" fill="#F9CB83" stroke="#FFFFFF" stroke-width="0.25" stroke-miterlimit="10" width="24.191" height="42.042"/>
	
		<rect x="758.236" y="220.325" fill="#EB857E" stroke="#FFFFFF" stroke-width="0.25" stroke-miterlimit="10" width="24.193" height="58.481"/>
	
		<rect x="785.118" y="260.699" fill="#DB6B7E" stroke="#FFFFFF" stroke-width="0.25" stroke-miterlimit="10" width="24.193" height="18.107"/>
	
		<rect x="812.067" y="256.328" fill="#B24581" stroke="#FFFFFF" stroke-width="0.25" stroke-miterlimit="10" width="24.193" height="22.478"/>
	
		<rect x="838.948" y="266.316" fill="#692586" stroke="#FFFFFF" stroke-width="0.25" stroke-miterlimit="10" width="24.193" height="12.489"/>
	
		<rect x="865.898" y="274.23" fill="#2E365F" stroke="#FFFFFF" stroke-width="0.25" stroke-miterlimit="10" width="24.193" height="4.576"/>
	
		<rect x="892.777" y="277.975" fill="#2B2472" stroke="#FFFFFF" stroke-width="0.25" stroke-miterlimit="10" width="24.193" height="0.831"/>
	
		<rect x="462.037" y="492.505" fill="#B6E7CF" stroke="#FFFFFF" stroke-width="0.25" stroke-miterlimit="10" width="24.177" height="0.829"/>
	
		<rect x="704.079" y="492.087" fill="#FFF48F" stroke="#FFFFFF" stroke-width="0.25" stroke-miterlimit="10" width="24.177" height="1.247"/>
	
		<rect x="273.663" y="434.854" fill="#2B2472" stroke="#FFFFFF" stroke-width="0.25" stroke-miterlimit="10" width="24.177" height="58.481"/>
	
		<rect x="300.594" y="451.292" fill="#2B345D" stroke="#FFFFFF" stroke-width="0.25" stroke-miterlimit="10" width="24.177" height="42.043"/>
	
		<rect x="327.625" y="434.854" fill="#76538F" stroke="#FFFFFF" stroke-width="0.25" stroke-miterlimit="10" width="24.177" height="58.481"/>
	
		<rect x="354.321" y="475.228" fill="#A17C8B" stroke="#FFFFFF" stroke-width="0.25" stroke-miterlimit="10" width="24.177" height="18.107"/>
	
		<rect x="381.253" y="470.857" fill="#F2CEA6" stroke="#FFFFFF" stroke-width="0.25" stroke-miterlimit="10" width="24.177" height="22.478"/>
	
		<rect x="408.116" y="480.845" fill="#FBF6AD" stroke="#FFFFFF" stroke-width="0.25" stroke-miterlimit="10" width="24.177" height="12.489"/>
	
		<rect x="435.047" y="488.759" fill="#DAF3C0" stroke="#FFFFFF" stroke-width="0.25" stroke-miterlimit="10" width="24.177" height="4.576"/>
	
		<rect x="730.885" y="472.524" fill="#F9CB83" stroke="#FFFFFF" stroke-width="0.25" stroke-miterlimit="10" width="24.179" height="20.81"/>
	
		<rect x="757.747" y="480.015" fill="#EB857E" stroke="#FFFFFF" stroke-width="0.25" stroke-miterlimit="10" width="24.176" height="13.32"/>
	
		<rect x="784.61" y="427.983" fill="#DB6B7E" stroke="#FFFFFF" stroke-width="0.25" stroke-miterlimit="10" width="24.177" height="65.352"/>
	
		<rect x="811.544" y="402.385" fill="#B24581" stroke="#FFFFFF" stroke-width="0.25" stroke-miterlimit="10" width="24.177" height="90.95"/>
	
		<rect x="838.405" y="478.974" fill="#692586" stroke="#FFFFFF" stroke-width="0.25" stroke-miterlimit="10" width="24.179" height="14.361"/>
	
		<rect x="865.337" y="426.946" fill="#2E365F" stroke="#FFFFFF" stroke-width="0.25" stroke-miterlimit="10" width="24.177" height="66.388"/>
	
		<rect x="892.201" y="439.64" fill="#2B2472" stroke="#FFFFFF" stroke-width="0.25" stroke-miterlimit="10" width="24.179" height="53.694"/>
	
		<rect x="572.161" y="599.768" fill="#FDFFFF" stroke="#FFFFFF" stroke-width="0.25" stroke-miterlimit="10" width="24.177" height="0.831"/>
	
		<rect x="811.93" y="599.351" fill="#B24581" stroke="#FFFFFF" stroke-width="0.25" stroke-miterlimit="10" width="24.177" height="1.247"/>
	
		<rect x="273.663" y="509.649" fill="#2B2472" stroke="#FFFFFF" stroke-width="0.25" stroke-miterlimit="10" width="24.177" height="90.95"/>
	
		<rect x="300.594" y="586.237" fill="#2B345D" stroke="#FFFFFF" stroke-width="0.25" stroke-miterlimit="10" width="24.177" height="14.361"/>
	
		<rect x="327.624" y="534.21" fill="#76538F" stroke="#FFFFFF" stroke-width="0.25" stroke-miterlimit="10" width="24.177" height="66.388"/>
	
		<rect x="354.321" y="546.904" fill="#A17C8B" stroke="#FFFFFF" stroke-width="0.25" stroke-miterlimit="10" width="24.177" height="53.695"/>
	
		<rect x="381.253" y="542.118" fill="#FFCD9C" stroke="#FFFFFF" stroke-width="0.25" stroke-miterlimit="10" width="24.177" height="58.481"/>
	
		<rect x="408.116" y="558.557" fill="#FFEFA1" stroke="#FFFFFF" stroke-width="0.25" stroke-miterlimit="10" width="24.177" height="42.042"/>
	
		<rect x="435.047" y="542.118" fill="#FFF0B3" stroke="#FFFFFF" stroke-width="0.25" stroke-miterlimit="10" width="24.177" height="58.481"/>
	
		<rect x="461.911" y="582.49" fill="#FDFFDE" stroke="#FFFFFF" stroke-width="0.25" stroke-miterlimit="10" width="24.177" height="18.108"/>
	
		<rect x="488.843" y="578.12" fill="#DEF9FF" stroke="#FFFFFF" stroke-width="0.25" stroke-miterlimit="10" width="24.177" height="22.478"/>
	
		<rect x="515.705" y="588.109" fill="#DEF9FF" stroke="#FFFFFF" stroke-width="0.25" stroke-miterlimit="10" width="24.177" height="12.489"/>
	
		<rect x="542.57" y="596.022" fill="#FDFFFF" stroke="#FFFFFF" stroke-width="0.25" stroke-miterlimit="10" width="24.177" height="4.577"/>
	
		<rect x="838.408" y="579.788" fill="#692586" stroke="#FFFFFF" stroke-width="0.25" stroke-miterlimit="10" width="24.179" height="20.81"/>
	
		<rect x="865.339" y="588.267" fill="#2E365F" stroke="#FFFFFF" stroke-width="0.25" stroke-miterlimit="10" width="24.177" height="12.332"/>
	
		<rect x="892.202" y="535.246" fill="#2B2472" stroke="#FFFFFF" stroke-width="0.25" stroke-miterlimit="10" width="24.177" height="65.353"/>
	
		<rect x="273.663" y="706.613" fill="#2B2472" stroke="#FFFFFF" stroke-width="0.25" stroke-miterlimit="10" width="24.177" height="1.246"/>
	
		<rect x="300.595" y="687.051" fill="#2B345D" stroke="#FFFFFF" stroke-width="0.25" stroke-miterlimit="10" width="24.177" height="20.808"/>
	
		<rect x="327.457" y="694.54" fill="#76538F" stroke="#FFFFFF" stroke-width="0.25" stroke-miterlimit="10" width="24.177" height="13.319"/>
	
		<rect x="354.488" y="642.509" fill="#A17C8B" stroke="#FFFFFF" stroke-width="0.25" stroke-miterlimit="10" width="24.177" height="65.35"/>
	
		<rect x="381.253" y="616.913" fill="#FFCD9C" stroke="#FFFFFF" stroke-width="0.25" stroke-miterlimit="10" width="24.177" height="90.947"/>
	
		<rect x="408.116" y="693.498" fill="#FFEFA1" stroke="#FFFFFF" stroke-width="0.25" stroke-miterlimit="10" width="24.177" height="14.361"/>
	
		<rect x="435.047" y="641.474" fill="#FFF0B3" stroke="#FFFFFF" stroke-width="0.25" stroke-miterlimit="10" width="24.177" height="66.385"/>
	
		<rect x="461.91" y="654.167" fill="#FDFFDE" stroke="#FFFFFF" stroke-width="0.25" stroke-miterlimit="10" width="24.177" height="53.692"/>
	
		<rect x="488.842" y="649.381" fill="#DEF9FF" stroke="#FFFFFF" stroke-width="0.25" stroke-miterlimit="10" width="24.177" height="58.479"/>
	
		<rect x="515.705" y="665.82" fill="#DEF9FF" stroke="#FFFFFF" stroke-width="0.25" stroke-miterlimit="10" width="24.177" height="42.04"/>
	
		<rect x="542.569" y="649.381" fill="#FDFFFF" stroke="#FFFFFF" stroke-width="0.25" stroke-miterlimit="10" width="24.176" height="58.479"/>
	
		<rect x="569.501" y="689.754" fill="#FDFFFF" stroke="#FFFFFF" stroke-width="0.25" stroke-miterlimit="10" width="24.177" height="18.106"/>
	
		<rect x="596.363" y="685.383" fill="#DEF9FF" stroke="#FFFFFF" stroke-width="0.25" stroke-miterlimit="10" width="24.178" height="22.476"/>
	
		<rect x="623.295" y="695.371" fill="#DEF9FF" stroke="#FFFFFF" stroke-width="0.25" stroke-miterlimit="10" width="24.178" height="12.488"/>
	
		<rect x="650.159" y="703.284" fill="#FFF7D7" stroke="#FFFFFF" stroke-width="0.25" stroke-miterlimit="10" width="24.177" height="4.576"/>
	
		<rect x="677.091" y="707.029" fill="#FFF0B3" stroke="#FFFFFF" stroke-width="0.25" stroke-miterlimit="10" width="24.177" height="0.831"/>
	<line fill="none" stroke="#FFFFFF" stroke-width="3" stroke-miterlimit="10" x1="271.042" y1="64.546" x2="916.042" y2="64.546"/>
	
		<rect x="272.689" y="367.967" fill="#2B2472" stroke="#FFFFFF" stroke-width="0.25" stroke-miterlimit="10" width="24.177" height="18.107"/>
	
		<rect x="299.62" y="363.594" fill="#2B345D" stroke="#FFFFFF" stroke-width="0.25" stroke-miterlimit="10" width="24.177" height="22.479"/>
	
		<rect x="326.483" y="373.584" fill="#76538F" stroke="#FFFFFF" stroke-width="0.25" stroke-miterlimit="10" width="24.177" height="12.489"/>
	
		<rect x="353.346" y="381.497" fill="#A17C8B" stroke="#FFFFFF" stroke-width="0.25" stroke-miterlimit="10" width="24.177" height="4.576"/>
	
		<rect x="380.278" y="385.243" fill="#F2CEA6" stroke="#FFFFFF" stroke-width="0.25" stroke-miterlimit="10" width="24.177" height="0.831"/>
	
		<rect x="622.32" y="384.826" fill="#DEF9FF" stroke="#FFFFFF" stroke-width="0.25" stroke-miterlimit="10" width="24.176" height="1.247"/>
	
		<rect x="649.182" y="365.262" fill="#FFF7D7" stroke="#FFFFFF" stroke-width="0.25" stroke-miterlimit="10" width="24.178" height="20.811"/>
	
		<rect x="676.114" y="372.753" fill="#FFF0B3" stroke="#FFFFFF" stroke-width="0.25" stroke-miterlimit="10" width="24.177" height="13.32"/>
	
		<rect x="702.977" y="320.72" fill="#FFF48F" stroke="#FFFFFF" stroke-width="0.25" stroke-miterlimit="10" width="24.177" height="65.353"/>
	
		<rect x="729.909" y="295.121" fill="#F9CB83" stroke="#FFFFFF" stroke-width="0.25" stroke-miterlimit="10" width="24.178" height="90.952"/>
	
		<rect x="756.771" y="371.712" fill="#EB857E" stroke="#FFFFFF" stroke-width="0.25" stroke-miterlimit="10" width="24.176" height="14.361"/>
	
		<rect x="783.636" y="319.683" fill="#DB6B7E" stroke="#FFFFFF" stroke-width="0.25" stroke-miterlimit="10" width="24.176" height="66.39"/>
	
		<rect x="810.567" y="332.378" fill="#B24581" stroke="#FFFFFF" stroke-width="0.25" stroke-miterlimit="10" width="24.177" height="53.696"/>
	
		<rect x="837.429" y="327.591" fill="#692586" stroke="#FFFFFF" stroke-width="0.25" stroke-miterlimit="10" width="24.179" height="58.482"/>
	
		<rect x="864.361" y="344.03" fill="#2E365F" stroke="#FFFFFF" stroke-width="0.25" stroke-miterlimit="10" width="24.177" height="42.043"/>
	
		<rect x="891.225" y="327.591" fill="#2B2472" stroke="#FFFFFF" stroke-width="0.25" stroke-miterlimit="10" width="24.176" height="58.482"/>
	<line fill="none" stroke="#FFFFFF" stroke-miterlimit="10" x1="272.689" y1="388.015" x2="917.042" y2="388.015"/>
	<line fill="none" stroke="#FFFFFF" stroke-miterlimit="10" x1="272.522" y1="603.015" x2="916.875" y2="603.015"/>
	<line fill="none" stroke="#FFFFFF" stroke-miterlimit="10" x1="273.522" y1="709.681" x2="917.875" y2="709.681"/>
	<line fill="none" stroke="#FFFFFF" stroke-miterlimit="10" x1="273.189" y1="495.681" x2="917.542" y2="495.681"/>
	<line fill="none" stroke="#FFFFFF" stroke-miterlimit="10" x1="273.189" y1="280.681" x2="917.542" y2="280.681"/>
	<line fill="none" stroke="#FFFFFF" stroke-miterlimit="10" x1="271.856" y1="174.681" x2="916.209" y2="174.681"/>
	<g>
		
			<line fill="none" stroke="#FFFFFF" stroke-width="0.5" stroke-miterlimit="10" x1="489.042" y1="65.546" x2="489.044" y2="67.546"/>
		
			<line fill="none" stroke="#FFFFFF" stroke-width="0.5" stroke-miterlimit="10" stroke-dasharray="3.9822,3.9822" x1="489.047" y1="71.528" x2="489.519" y2="706.69"/>
		
			<line fill="none" stroke="#FFFFFF" stroke-width="0.5" stroke-miterlimit="10" x1="489.521" y1="708.681" x2="489.522" y2="710.681"/>
	</g>
	<g>
		
			<line fill="none" stroke="#FFFFFF" stroke-width="0.5" stroke-miterlimit="10" x1="380.042" y1="64.546" x2="380.044" y2="66.546"/>
		
			<line fill="none" stroke="#FFFFFF" stroke-width="0.5" stroke-miterlimit="10" stroke-dasharray="3.9822,3.9822" x1="380.047" y1="70.528" x2="380.519" y2="705.69"/>
		
			<line fill="none" stroke="#FFFFFF" stroke-width="0.5" stroke-miterlimit="10" x1="380.521" y1="707.681" x2="380.522" y2="709.681"/>
	</g>
	<line fill="none" stroke="#FFFFFF" stroke-miterlimit="10" x1="271.042" y1="64.546" x2="271.522" y2="709.681"/>
	<g>
		
			<line fill="none" stroke="#FFFFFF" stroke-width="0.5" stroke-miterlimit="10" x1="595.042" y1="62.546" x2="595.044" y2="64.546"/>
		
			<line fill="none" stroke="#FFFFFF" stroke-width="0.5" stroke-miterlimit="10" stroke-dasharray="3.9822,3.9822" x1="595.047" y1="68.528" x2="595.519" y2="703.69"/>
		
			<line fill="none" stroke="#FFFFFF" stroke-width="0.5" stroke-miterlimit="10" x1="595.521" y1="705.681" x2="595.522" y2="707.681"/>
	</g>
	<g>
		
			<line fill="none" stroke="#FFFFFF" stroke-width="0.5" stroke-miterlimit="10" x1="703.042" y1="62.546" x2="703.044" y2="64.546"/>
		
			<line fill="none" stroke="#FFFFFF" stroke-width="0.5" stroke-miterlimit="10" stroke-dasharray="3.9822,3.9822" x1="703.047" y1="68.528" x2="703.519" y2="703.69"/>
		
			<line fill="none" stroke="#FFFFFF" stroke-width="0.5" stroke-miterlimit="10" x1="703.521" y1="705.681" x2="703.522" y2="707.681"/>
	</g>
	<g>
		
			<line fill="none" stroke="#FFFFFF" stroke-width="0.5" stroke-miterlimit="10" x1="809.042" y1="64.546" x2="809.044" y2="66.546"/>
		
			<line fill="none" stroke="#FFFFFF" stroke-width="0.5" stroke-miterlimit="10" stroke-dasharray="3.9822,3.9822" x1="809.047" y1="70.528" x2="809.519" y2="705.69"/>
		
			<line fill="none" stroke="#FFFFFF" stroke-width="0.5" stroke-miterlimit="10" x1="809.521" y1="707.681" x2="809.522" y2="709.681"/>
	</g>
	<g>
		
			<line fill="none" stroke="#FFFFFF" stroke-width="0.5" stroke-miterlimit="10" x1="917.042" y1="64.546" x2="917.044" y2="66.546"/>
		
			<line fill="none" stroke="#FFFFFF" stroke-width="0.5" stroke-miterlimit="10" stroke-dasharray="3.9822,3.9822" x1="917.047" y1="70.528" x2="917.519" y2="705.69"/>
		
			<line fill="none" stroke="#FFFFFF" stroke-width="0.5" stroke-miterlimit="10" x1="917.521" y1="707.681" x2="917.522" y2="709.681"/>
	</g>
</g>
</svg>
